<?xml version="1.0" encoding="utf-8"?>
<!-- Generator: Adobe Illustrator 24.0.1, SVG Export Plug-In . SVG Version: 6.00 Build 0)  -->
<svg version="1.1" id="Layer_1" xmlns="http://www.w3.org/2000/svg" xmlns:xlink="http://www.w3.org/1999/xlink" x="0px" y="0px"
	 viewBox="0 0 732.61 929.53" style="enable-background:new 0 0 732.61 929.53;" xml:space="preserve">
<style type="text/css">
	.st0{fill:#2F397C;}
	.st1{fill:#FFFFFF;}
	.st2{fill:none;stroke:#2F397C;stroke-width:15.1343;stroke-miterlimit:10;}
	.st3{fill:#EFEFF1;}
	.st4{fill:none;stroke:#2F3A7B;stroke-width:20.7036;stroke-miterlimit:10;}
	.st5{fill:none;stroke:#2F397C;stroke-width:19.5368;stroke-linecap:round;stroke-linejoin:round;stroke-miterlimit:10;}
	.st6{fill:none;stroke:#2F397C;stroke-width:20.7036;stroke-linecap:round;stroke-linejoin:round;stroke-miterlimit:10;}
	.st7{fill:#DE3534;}
</style>
<g>
	<g>
		<g>
			<path class="st0" d="M169.47,723.9v28.36h29.32V723.9h15.93v73.91h-15.93v-31.88h-29.32v31.88h-15.93V723.9H169.47z"/>
			<path class="st0" d="M242.62,784.98c2.16,2.14,5.27,3.21,9.33,3.21c2.91,0,5.41-0.74,7.51-2.23c2.1-1.48,3.38-3.05,3.86-4.71
				h12.68c-2.03,6.42-5.14,11.01-9.33,13.77c-4.19,2.76-9.27,4.14-15.22,4.14c-4.13,0-7.85-0.67-11.16-2.02
				c-3.31-1.35-6.12-3.26-8.42-5.75c-2.3-2.48-4.08-5.45-5.33-8.9c-1.25-3.45-1.88-7.25-1.88-11.39c0-4,0.64-7.73,1.93-11.18
				c1.28-3.45,3.11-6.43,5.48-8.95c2.37-2.52,5.19-4.5,8.47-5.95c3.28-1.45,6.91-2.17,10.91-2.17c4.46,0,8.35,0.88,11.67,2.64
				c3.31,1.76,6.04,4.12,8.17,7.09c2.13,2.97,3.67,6.35,4.62,10.14c0.95,3.8,1.28,7.76,1.01,11.9h-37.84
				C239.27,779.39,240.45,782.84,242.62,784.98z M258.9,756.82c-1.72-1.93-4.35-2.9-7.86-2.9c-2.3,0-4.21,0.4-5.73,1.19
				c-1.52,0.79-2.74,1.78-3.65,2.95c-0.91,1.17-1.56,2.42-1.93,3.73c-0.37,1.31-0.59,2.48-0.66,3.52h23.43
				C261.82,761.58,260.62,758.76,258.9,756.82z"/>
			<path class="st0" d="M287.35,752.16c1.49-2.28,3.38-4.11,5.68-5.49c2.3-1.38,4.88-2.36,7.76-2.95c2.87-0.59,5.76-0.88,8.67-0.88
				c2.64,0,5.31,0.19,8.01,0.57c2.71,0.38,5.17,1.12,7.41,2.23c2.23,1.1,4.06,2.64,5.48,4.61c1.42,1.97,2.13,4.57,2.13,7.82v27.85
				c0,2.42,0.13,4.73,0.41,6.94c0.27,2.21,0.74,3.87,1.42,4.97h-14.61c-0.27-0.83-0.49-1.67-0.66-2.54
				c-0.17-0.86-0.29-1.74-0.36-2.64c-2.3,2.42-5.01,4.11-8.12,5.07c-3.11,0.97-6.29,1.45-9.54,1.45c-2.5,0-4.84-0.31-7-0.93
				c-2.17-0.62-4.06-1.59-5.68-2.9c-1.62-1.31-2.89-2.97-3.8-4.97c-0.91-2-1.37-4.38-1.37-7.14c0-3.04,0.52-5.54,1.57-7.51
				c1.05-1.97,2.4-3.54,4.06-4.71c1.66-1.17,3.55-2.05,5.68-2.64c2.13-0.59,4.28-1.05,6.44-1.4c2.16-0.34,4.29-0.62,6.39-0.83
				c2.1-0.21,3.96-0.52,5.58-0.93c1.62-0.41,2.91-1.02,3.85-1.81c0.95-0.79,1.39-1.95,1.32-3.47c0-1.59-0.25-2.85-0.76-3.78
				c-0.51-0.93-1.18-1.66-2.03-2.17c-0.85-0.52-1.83-0.86-2.94-1.04c-1.12-0.17-2.32-0.26-3.6-0.26c-2.84,0-5.07,0.62-6.7,1.86
				c-1.62,1.24-2.57,3.31-2.84,6.21h-14.41C285.02,757.31,285.87,754.44,287.35,752.16z M315.81,772.92
				c-0.91,0.31-1.89,0.57-2.94,0.78c-1.05,0.21-2.15,0.38-3.3,0.52c-1.15,0.14-2.3,0.31-3.45,0.52c-1.08,0.21-2.15,0.48-3.2,0.83
				c-1.05,0.35-1.96,0.81-2.74,1.4c-0.78,0.59-1.41,1.33-1.88,2.23c-0.47,0.9-0.71,2.04-0.71,3.42c0,1.31,0.24,2.42,0.71,3.31
				c0.47,0.9,1.12,1.6,1.93,2.12c0.81,0.52,1.76,0.88,2.84,1.09c1.08,0.21,2.2,0.31,3.35,0.31c2.84,0,5.04-0.48,6.59-1.45
				c1.55-0.97,2.7-2.12,3.45-3.47c0.74-1.35,1.2-2.71,1.37-4.09c0.17-1.38,0.25-2.49,0.25-3.31v-5.49
				C317.48,772.18,316.72,772.61,315.81,772.92z"/>
			<path class="st0" d="M358.47,723.9v73.91h-14.41V723.9H358.47z"/>
			<path class="st0" d="M398.64,744.3v9.83h-10.55v26.5c0,2.48,0.41,4.14,1.22,4.97c0.81,0.83,2.43,1.24,4.87,1.24
				c0.81,0,1.59-0.03,2.33-0.1c0.74-0.07,1.45-0.17,2.13-0.31v11.39c-1.22,0.21-2.57,0.34-4.06,0.41c-1.49,0.07-2.94,0.1-4.36,0.1
				c-2.23,0-4.35-0.16-6.34-0.47c-2-0.31-3.75-0.91-5.28-1.81c-1.52-0.9-2.72-2.17-3.6-3.83c-0.88-1.66-1.32-3.83-1.32-6.52v-31.57
				h-8.72v-9.83h8.72v-16.05h14.41v16.05H398.64z"/>
			<path class="st0" d="M419.94,723.9v27.85h0.3c1.83-3.11,4.16-5.37,7-6.78c2.84-1.41,5.61-2.12,8.32-2.12
				c3.85,0,7.02,0.54,9.49,1.6c2.47,1.07,4.41,2.55,5.83,4.45c1.42,1.9,2.42,4.21,2.99,6.94c0.57,2.73,0.86,5.75,0.86,9.06v32.92
				h-14.41v-30.23c0-4.41-0.68-7.71-2.03-9.89c-1.35-2.17-3.75-3.26-7.2-3.26c-3.92,0-6.76,1.19-8.52,3.57
				c-1.76,2.38-2.64,6.3-2.64,11.75v28.05h-14.41V723.9H419.94z"/>
		</g>
		<g>
			<path class="st0" d="M506.37,723.9v73.91h-9.64V723.9H506.37z"/>
			<path class="st0" d="M547.46,723.9c11.16,0,19.75,2.9,25.77,8.7c6.02,5.8,9.03,14.63,9.03,26.5c0,6.21-0.68,11.72-2.03,16.51
				c-1.35,4.8-3.45,8.84-6.29,12.11c-2.84,3.28-6.46,5.78-10.85,7.5c-4.4,1.73-9.6,2.59-15.62,2.59H522.6V723.9H547.46z
				 M548.27,789.53c1.08,0,2.43-0.09,4.06-0.26c1.62-0.17,3.35-0.59,5.17-1.24c1.83-0.66,3.63-1.6,5.43-2.85
				c1.79-1.24,3.4-2.93,4.82-5.07c1.42-2.14,2.59-4.81,3.5-8.02c0.91-3.21,1.37-7.09,1.37-11.65c0-4.42-0.42-8.37-1.27-11.85
				c-0.85-3.48-2.23-6.45-4.16-8.9c-1.93-2.45-4.41-4.31-7.46-5.59c-3.04-1.28-6.8-1.92-11.26-1.92h-16.23v57.35H548.27z"/>
		</g>
	</g>
	<g>
		<path class="st1" d="M643.73,386.66c0,153.22-124.21,277.42-277.42,277.42c-153.22,0-277.43-124.2-277.43-277.42
			c0-153.22,124.21-277.42,277.43-277.42C519.52,109.25,643.73,233.45,643.73,386.66"/>
		<path class="st2" d="M643.73,386.66c0,153.22-124.21,277.42-277.42,277.42c-153.22,0-277.43-124.2-277.43-277.42
			c0-153.22,124.21-277.42,277.43-277.42C519.52,109.25,643.73,233.45,643.73,386.66z"/>
		<g>
			<path class="st3" d="M544.84,386.66c0,98.6-79.94,178.54-178.54,178.54s-178.54-79.94-178.54-178.54
				c0-98.6,79.94-178.54,178.54-178.54S544.84,288.06,544.84,386.66"/>
			<rect x="204.37" y="256.68" class="st1" width="340.49" height="232.99"/>
			<path class="st1" d="M575.29,496.03H172.44c-3.93,0-6.24,4.43-3.99,7.65l8.19,11.74c3.77,5.41,9.96,8.64,16.56,8.64h362.87
				c7.32,0,14.07-3.96,17.63-10.35l5.83-10.44C581.35,500.03,579,496.03,575.29,496.03"/>
			<path class="st4" d="M575.29,496.03H172.44c-3.93,0-6.24,4.43-3.99,7.65l8.19,11.74c3.77,5.41,9.96,8.64,16.56,8.64h362.87
				c7.32,0,14.07-3.96,17.63-10.35l5.83-10.44C581.35,500.03,579,496.03,575.29,496.03z"/>
			<line class="st5" x1="202.15" y1="476.1" x2="202.15" y2="496.03"/>
			<path class="st6" d="M547.07,496.03v-231.5c0-8.12-6.57-14.7-14.69-14.7H258.29"/>
			<path class="st0" d="M180.08,258.94c0-3.73,0.71-7.25,2.13-10.54c1.42-3.29,3.39-6.18,5.88-8.67c2.48-2.49,5.37-4.45,8.67-5.88
				c3.29-1.42,6.81-2.13,10.54-2.13s7.24,0.71,10.54,2.13c3.29,1.43,6.18,3.39,8.66,5.88c2.51,2.49,4.46,5.39,5.88,8.67
				c1.42,3.29,2.14,6.81,2.14,10.54c0,3.74-0.72,7.25-2.14,10.54c-1.42,3.29-3.37,6.18-5.88,8.67c-2.48,2.49-5.37,4.45-8.66,5.87
				c-3.3,1.43-6.81,2.14-10.54,2.14s-7.25-0.71-10.54-2.14c-3.3-1.42-6.19-3.37-8.67-5.87c-2.49-2.49-4.46-5.39-5.88-8.67
				C180.79,266.19,180.08,262.67,180.08,258.94"/>
			<rect x="186.66" y="304.12" class="st7" width="41.51" height="159.38"/>
			<path class="st7" d="M403.99,288.62H279.63v174.4h124.36c48.16,0,87.2-39.04,87.2-87.19
				C491.19,327.65,452.14,288.62,403.99,288.62"/>
			<g>
				<path class="st1" d="M373.86,377.58c16.23,0,29.38-13.14,29.38-29.38c0-16.23-13.15-29.38-29.38-29.38
					c-16.23,0-29.38,13.15-29.38,29.38C344.51,364.42,357.65,377.56,373.86,377.58 M373.86,330.24c9.96,0,18.02,8.07,18.02,18.02
					c0,9.94-8.07,18.01-18.02,18.01c-9.94,0-18.01-8.07-18.01-18.01C355.85,338.31,363.92,330.24,373.86,330.24"/>
				<path class="st1" d="M373.86,388.44c-12.02-0.08-23.56,4.75-31.95,13.36c-8.51,8.69-13.18,20.52-13.18,33.36
					c0.01,3.13,2.56,5.67,5.69,5.67h78.89c3.13,0,5.67-2.54,5.69-5.67c0-12.84-4.67-24.67-13.19-33.36
					C397.42,393.18,385.89,388.35,373.86,388.44 M340.5,429.47c0.98-7.43,4.33-14.35,9.55-19.72c13-13.15,34.19-13.28,47.35-0.27
					l0.29,0.27c5.21,5.39,8.56,12.3,9.53,19.72H340.5z"/>
			</g>
		</g>
	</g>
</g>
</svg>
