<svg xmlns="http://www.w3.org/2000/svg" xmlns:xlink="http://www.w3.org/1999/xlink" width="1920" height="1080" viewBox="0 0 1920 1080">
  <defs>
    <clipPath id="clip-Web_1920_1">
      <rect width="1920" height="1080"/>
    </clipPath>
  </defs>
  <g id="Web_1920_1" data-name="Web 1920 – 1" clip-path="url(#clip-Web_1920_1)">
    <rect width="1920" height="1080" fill="#fff"/>
    <g id="Icon_08" transform="translate(831.476 414.731)">
      <path id="Path_23" data-name="Path 23" d="M117.211,220.982a1.846,1.846,0,0,1-.675-.129c-.9-.352-22.181-8.874-43.316-31.011C53.726,169.423,30.895,133.127,32.826,76.166a1.848,1.848,0,0,1,1.981-1.781c.978.071,23.875,1.086,33.8-38.033a1.846,1.846,0,0,1,1.37-1.345c2.393-.56,58.925-13.517,90.575,2.617a1.848,1.848,0,0,1,.912,1.052c.111.334,11.6,33.361,34.119,35.094a1.848,1.848,0,0,1,1.705,1.843v31.414a1.848,1.848,0,0,1-3.7,0V77.27c-22.141-3.068-33.514-31.6-35.372-36.68-28.255-13.864-78.33-3.938-86.318-2.224C62.61,73.472,42.771,77.635,36.467,78.05c-2.626,105.1,80.575,139.031,81.42,139.363a1.849,1.849,0,0,1-.676,3.569Z" fill="none" stroke="#002c42" stroke-miterlimit="10" stroke-width="5"/>
      <path id="Path_24" data-name="Path 24" d="M110.437,145.832a1.843,1.843,0,0,1-1.247-.484L80.24,118.862a1.847,1.847,0,0,1,2.494-2.726l27.326,25,37.624-59.124A1.848,1.848,0,1,1,150.8,84L112,144.978a1.846,1.846,0,0,1-1.317.839A1.981,1.981,0,0,1,110.437,145.832Z" fill="none" stroke="#16c7f7" stroke-miterlimit="10" stroke-width="5"/>
      <path id="Path_25" data-name="Path 25" d="M149.243,83l-38.806,60.981L81.486,117.5" fill="none" stroke="#16c7f7" stroke-miterlimit="10" stroke-width="5"/>
      <path id="Path_26" data-name="Path 26" d="M155.354,152.608s-6.726-32.646,21.608-35.11c0,0,27.717.616,21.558,35.11" fill="none" stroke="#16c7f7" stroke-miterlimit="10" stroke-width="7"/>
      <path id="Path_27" data-name="Path 27" d="M177.034,192.188a1.385,1.385,0,0,1-1.386-1.386V176.013a1.386,1.386,0,1,1,2.772,0V190.8A1.385,1.385,0,0,1,177.034,192.188Z" fill="none" stroke="#16c7f7" stroke-miterlimit="10" stroke-width="5"/>
      <path id="Path_28" data-name="Path 28" d="M129.944,208.955v-47.48s-.917-9.5,15.57-9.5h65.035s14.049,0,13.74,10.13v48.747s1.833,10.126-17.4,9.495H146.431S129.944,220.349,129.944,208.955Z" fill="none" stroke="#16c7f7" stroke-miterlimit="10" stroke-width="7"/>
    </g>
  </g>
</svg>
