<svg xmlns="http://www.w3.org/2000/svg" xmlns:xlink="http://www.w3.org/1999/xlink" width="1920" height="1080" viewBox="0 0 1920 1080">
  <defs>
    <clipPath id="clip-Web_1920_1">
      <rect width="1920" height="1080"/>
    </clipPath>
  </defs>
  <g id="Web_1920_1" data-name="Web 1920 – 1" clip-path="url(#clip-Web_1920_1)">
    <rect width="1920" height="1080" fill="#fff"/>
    <g id="Icon_06" transform="translate(900.058 469.288)">
      <path id="Path_13" data-name="Path 13" d="M62.217,40.6a4.259,4.259,0,0,0-3.147-1.061c-2.121.123-4.318,1.594-6.534,4.371l-7.822,7.822a7.28,7.28,0,0,0-3.241,4.544A5.632,5.632,0,0,0,43.1,60.967l3.208,3.208L18.656,92.8v10.985l13.015,7.3.949-9.487,1.554-2.936,6.346,1.692.334-1.251a7.33,7.33,0,0,1-1.338-2.121L32.64,95.15l-2.946,5.564-.551,5.513-7.485-4.2V94.013L50.511,64.138l-5.224-5.219a2.7,2.7,0,0,1-.851-2.172,4.474,4.474,0,0,1,1.994-2.555l8.289-8.226.116-.13c2.141-2.7,3.626-3.228,4.32-3.3a1.376,1.376,0,0,1,.953.194l5.677,6.418,2.247-1.988Z" fill="#002c3e"/>
      <path id="Path_14" data-name="Path 14" d="M37.88,99.458l-.724-5.9,3.69-4.6,5.321-.653-.435-3.548,1.293-4.113,8.4-1.03.365,2.978-6.485.794-.519,1.651.721,5.881-7.087.87-2.135,2.662.569,4.643Z" fill="#002c3e"/>
      <path id="Path_15" data-name="Path 15" d="M68.373,84.56C51.212,78.036,56.929,60.84,56.988,60.667l.118-.258c3.1-5.379,7.211-8.618,12.235-9.628,9.665-1.945,19.079,5.132,19.476,5.434L87,58.6c-.086-.065-8.757-6.559-17.078-4.876-4.1.827-7.5,3.535-10.137,8.05-.486,1.533-4.205,14.71,9.657,19.98Z" fill="#16c7f7"/>
      <path id="Path_16" data-name="Path 16" d="M68.906,119.408" fill="none" stroke="#3dc7c6" stroke-miterlimit="10" stroke-width="3"/>
      <rect id="Rectangle_1" data-name="Rectangle 1" width="3" height="39.237" transform="translate(66.543 81.17)" fill="#16c7f7"/>
      <rect id="Rectangle_2" data-name="Rectangle 2" width="3" height="15.169" transform="translate(82.046 117.762) rotate(88.957)" fill="#16c7f7"/>
      <rect id="Rectangle_3" data-name="Rectangle 3" width="3" height="6.668" transform="translate(79.24 113.74)" fill="#16c7f7"/>
      <rect id="Rectangle_4" data-name="Rectangle 4" width="8.666" height="3" transform="translate(80.74 113.574)" fill="#16c7f7"/>
      <rect id="Rectangle_5" data-name="Rectangle 5" width="3" height="15.799" transform="translate(86.406 99.275)" fill="#16c7f7"/>
      <rect id="Rectangle_6" data-name="Rectangle 6" width="5" height="3" transform="translate(82.073 105.674)" fill="#16c7f7"/>
      <rect id="Rectangle_7" data-name="Rectangle 7" width="7.333" height="3" transform="translate(82.073 97.775)" fill="#16c7f7"/>
      <path id="Path_17" data-name="Path 17" d="M82.24,100.74h-3V81.858l1.287-.185c7.588-1.09,10.394-12.257,10.421-12.369l2.916.705c-.124.516-3.021,12.108-11.624,14.373Z" fill="#16c7f7"/>
      <path id="Path_18" data-name="Path 18" d="M74.085,76.134a10.433,10.433,0,0,1-5.221-1.249,7.863,7.863,0,0,1-3.79-4.94,6.608,6.608,0,0,1,1.527-6.24c3.84-3.946,12.687-2.571,13.682-2.4l-.5,2.957c-2.28-.386-8.7-.86-11.03,1.537a3.748,3.748,0,0,0-.732,3.566,4.844,4.844,0,0,0,2.379,2.94c2.291,1.262,5.879,1.068,10.374-.558l1.021,2.82A23.012,23.012,0,0,1,74.085,76.134Z" fill="#16c7f7"/>
      <path id="Path_19" data-name="Path 19" d="M73.942,70.14c-.805,0-1.635-.022-2.5-.071l.17-3c13.154.751,18.635-5,18.688-5.058l.205-.184c10.02-7.487,7.456-21.618,7.2-22.88C91.454,22.3,78.242,23.347,77.677,23.4l-.093.009-.1,0c-15.145-.47-21.7,12.945-21.973,13.517L52.8,35.644c.073-.155,7.372-15.249,23.936-15.249.255,0,.511,0,.77.012,1.509-.1,16.316-.5,23.058,17.6l.058.192c.156.689,3.683,16.966-8.219,25.961C91.544,65.02,85.929,70.139,73.942,70.14Z" fill="#002c3e"/>
      <rect id="Rectangle_8" data-name="Rectangle 8" width="1.377" height="6.302" transform="translate(58.621 50.201) rotate(45.243)" fill="#002c3e"/>
    </g>
  </g>
</svg>
