<svg xmlns="http://www.w3.org/2000/svg" xmlns:xlink="http://www.w3.org/1999/xlink" width="1920" height="1080" viewBox="0 0 1920 1080">
  <defs>
    <clipPath id="clip-Web_1920_1">
      <rect width="1920" height="1080"/>
    </clipPath>
  </defs>
  <g id="Web_1920_1" data-name="Web 1920 – 1" clip-path="url(#clip-Web_1920_1)">
    <rect width="1920" height="1080" fill="#fff"/>
    <g id="Icon_04" transform="translate(881.625 461.615)">
      <path id="Path_1" data-name="Path 1" d="M84.637,113.714H27.429c-4.153,0-7.532-2.954-7.532-6.586V47.3c0-3.632,3.379-6.586,7.532-6.586H65.073v-3H27.429c-5.888,0-10.679,4.3-10.679,9.586v59.828c0,5.286,4.791,9.586,10.679,9.586h57.6A15.677,15.677,0,0,0,84.637,113.714Z" fill="#002b3e"/>
      <path id="Path_2" data-name="Path 2" d="M129.128,37.714H89.2v3h39.927c4.229,0,7.669,2.954,7.669,6.586v59.828c0,3.632-3.439,6.586-7.669,6.586h-3.795v3h3.795c5.994,0,10.872-4.3,10.872-9.586V47.3C140,42.014,135.122,37.714,129.128,37.714Z" fill="#002b3e"/>
      <path id="Path_3" data-name="Path 3" d="M126.75,62.563H72a1.6,1.6,0,0,1,0-3.2h54.75a1.6,1.6,0,1,1,0,3.2Z" fill="#002c3e"/>
      <path id="Path_4" data-name="Path 4" d="M126.75,75.563H72a1.6,1.6,0,0,1,0-3.2h54.75a1.6,1.6,0,1,1,0,3.2Z" fill="#002c3e"/>
      <path id="Path_5" data-name="Path 5" d="M93.662,85.774a2.448,2.448,0,0,1,.645-1.16H73a1.6,1.6,0,0,0,0,3.2H93.1A2.718,2.718,0,0,1,93.662,85.774Z" fill="#002c3e"/>
      <path id="Path_6" data-name="Path 6" d="M126.75,84.614h-10.6a2.548,2.548,0,0,1,1.4,3.2h9.2a1.6,1.6,0,1,0,0-3.2Z" fill="#002c3e"/>
      <path id="Path_7" data-name="Path 7" d="M120.5,103.714h-3V90.342c-1.5-8.551-10.346-9.736-11.692-9.868-12.482,2.072-11.92,12.683-11.89,13.135l0,.105v10h-3v-9.97c-.047-1.137-.227-13.922,14.594-16.262l.165-.026.167.011c4.388.286,13.093,3.268,14.632,12.5l.021.247v13.5Z" fill="#16c7f7"/>
      <path id="Path_8" data-name="Path 8" d="M88.688,138.776c-4.41,0-6.3-4.463-6.683-6.822l-.02-.24v-29.5H127.5V131.63A6.69,6.69,0,0,1,126.179,137a5.738,5.738,0,0,1-4.383,1.768h0a6.955,6.955,0,0,1-.9-.056H89.605A7.015,7.015,0,0,1,88.688,138.776Zm-3.7-7.2c.143.716,1.09,4.643,4.291,4.153l.223-.017,31.757.022a3.942,3.942,0,0,0,.539.033A2.925,2.925,0,0,0,123.94,135a4.209,4.209,0,0,0,.57-3.12l-.01-.172v-26.5H84.986Z" fill="#16c7f7"/>
      <path id="Path_9" data-name="Path 9" d="M105.705,125.509a6.545,6.545,0,1,1,6.545-6.545A6.554,6.554,0,0,1,105.705,125.509Zm0-10.09a3.545,3.545,0,1,0,3.545,3.545A3.549,3.549,0,0,0,105.705,115.419Z" fill="#16c7f7"/>
      <path id="Path_10" data-name="Path 10" d="M105.705,130.313a1.6,1.6,0,0,1-1.6-1.6v-4.705a1.6,1.6,0,1,1,3.2,0v4.705A1.6,1.6,0,0,1,105.705,130.313Z" fill="#3dc8ca"/>
      <rect id="Rectangle_1" data-name="Rectangle 1" width="3" height="4.705" transform="translate(104.205 124.009)" fill="#16c7f7"/>
      <path id="Path_11" data-name="Path 11" d="M43,75.063a13.35,13.35,0,1,1,13.35-13.35A13.365,13.365,0,0,1,43,75.063Zm0-23.7a10.35,10.35,0,1,0,10.35,10.35A10.362,10.362,0,0,0,43,51.364Z" fill="#16c7f7"/>
      <path id="Path_12" data-name="Path 12" d="M59.756,92.839h-33.7l-.265-1.168c-.062-.271-1.465-6.716,2.531-11.813,2.915-3.72,7.843-5.669,14.647-5.794.005,0,.236-.012.615-.012,2.212,0,9.752.389,13.933,5.383,2.536,3.03,3.365,7.124,2.463,12.168Zm-31.2-3h28.65c.417-3.55-.252-6.4-1.994-8.479-3.346-4-9.749-4.309-11.632-4.309-.3,0-.482.009-.5.01-5.9.107-10.048,1.663-12.383,4.625A11.747,11.747,0,0,0,28.557,89.839Z" fill="#16c7f7"/>
      <path id="Path_13" data-name="Path 13" d="M61.5,101.813H27a1.6,1.6,0,1,1,0-3.2H61.5a1.6,1.6,0,1,1,0,3.2Z" fill="#3dc8ca"/>
      <path id="Path_17" data-name="Path 17" d="M0,0H34.5V3H0Z" transform="translate(27.001 98.714)" fill="#16c7f7"/>
      <path id="Path_14" data-name="Path 14" d="M91.25,50.364H64.5v-3H88.25V30.245h3Z" fill="#002c3e"/>
      <path id="Path_15" data-name="Path 15" d="M67.25,50.233h-3V29.483C64.25,20.4,72.672,18,77.125,18c5.115.192,8.919,1.789,11.36,4.748a13.164,13.164,0,0,1,2.755,9.062l-2.98-.352,1.49.176-1.491-.169a10.016,10.016,0,0,0-2.07-6.7c-1.876-2.253-4.943-3.475-9.117-3.632-.347,0-9.821.137-9.821,8.356v20.75Z" fill="#002c3e"/>
      <path id="Path_16" data-name="Path 16" d="M77.765,37.995a6.75,6.75,0,1,1,6.75-6.75A6.758,6.758,0,0,1,77.765,37.995Zm0-10.5a3.75,3.75,0,1,0,3.75,3.75A3.755,3.755,0,0,0,77.765,27.5Z" fill="#002c3e"/>
    </g>
  </g>
</svg>
