<svg xmlns="http://www.w3.org/2000/svg" xmlns:xlink="http://www.w3.org/1999/xlink" width="1920" height="1080" viewBox="0 0 1920 1080">
  <defs>
    <clipPath id="clip-Web_1920_1">
      <rect width="1920" height="1080"/>
    </clipPath>
  </defs>
  <g id="Web_1920_1" data-name="Web 1920 – 1" clip-path="url(#clip-Web_1920_1)">
    <rect width="1920" height="1080" fill="#fff"/>
    <g id="Icon_02" transform="translate(830.902 422.663)">
      <path id="Path_1" data-name="Path 1" d="M234.189,28.554H102.726A4.833,4.833,0,0,0,97.915,33.4V85.616h5.812V34.365H233.188V200.307H103.727V184.389H97.915v16.887a4.833,4.833,0,0,0,4.811,4.843H234.189A4.833,4.833,0,0,0,239,201.276V33.4A4.832,4.832,0,0,0,234.189,28.554Z" fill="#002b3d"/>
      <path id="Path_2" data-name="Path 2" d="M211.719,105.063H122.614a2.905,2.905,0,1,1,0-5.811h89.105a2.905,2.905,0,0,1,0,5.811Z" fill="#022b3e"/>
      <path id="Path_3" data-name="Path 3" d="M183.146,185.936H122.613a2.906,2.906,0,1,1,0-5.811h60.533a2.906,2.906,0,1,1,0,5.811Z" fill="#022b3e"/>
      <path id="Path_4" data-name="Path 4" d="M164.26,169.955H122.614a2.906,2.906,0,1,1,0-5.811H164.26a2.906,2.906,0,1,1,0,5.811Z" fill="#022b3e"/>
      <path id="Path_5" data-name="Path 5" d="M216.077,169.955H173.945a2.906,2.906,0,0,1,0-5.811h42.132a2.906,2.906,0,0,1,0,5.811Z" fill="#022b3e"/>
      <path id="Path_6" data-name="Path 6" d="M149.975,68.82v12.7H127.94V59.058h12.514V53.247h-12.98a5.374,5.374,0,0,0-5.345,5.391v23.3a5.374,5.374,0,0,0,5.345,5.391H150.44a5.374,5.374,0,0,0,5.345-5.391V68.82Z" fill="#16c7f7"/>
      <path id="Path_7" data-name="Path 7" d="M137.42,74.725a3.752,3.752,0,0,1-2.656-6.4L152.12,50.885a3.839,3.839,0,0,1,5.306-.013,3.757,3.757,0,0,1,.019,5.3L140.08,73.619A3.727,3.727,0,0,1,137.42,74.725Z" fill="#16c7f7"/>
      <path id="Path_8" data-name="Path 8" d="M210.992,133.992v12.7H188.958V124.23h12.515v-5.812h-12.98a5.376,5.376,0,0,0-5.346,5.392v23.3a5.374,5.374,0,0,0,5.346,5.391h22.965a5.375,5.375,0,0,0,5.346-5.391V133.991h-5.812Z" fill="#16c7f7"/>
      <path id="Path_9" data-name="Path 9" d="M198.438,139.9a3.753,3.753,0,0,1-2.661-6.4l17.359-17.441a3.84,3.84,0,0,1,5.307-.014,3.752,3.752,0,0,1,.014,5.306L201.1,138.791A3.768,3.768,0,0,1,198.438,139.9Z" fill="#16c7f7"/>
      <path id="Path_10" data-name="Path 10" d="M210.489,87.332H187.524a5.376,5.376,0,0,1-5.347-5.391v-23.3a5.375,5.375,0,0,1,5.347-5.391h22.965a5.376,5.376,0,0,1,5.346,5.391v23.3A5.376,5.376,0,0,1,210.489,87.332Zm-22.5-5.811h22.034V59.058H187.989Z" fill="#022b3e"/>
      <path id="Path_11" data-name="Path 11" d="M150.439,152.223H127.475a5.374,5.374,0,0,1-5.346-5.391v-23.3a5.374,5.374,0,0,1,5.346-5.391h22.964a5.374,5.374,0,0,1,5.346,5.391v23.3A5.374,5.374,0,0,1,150.439,152.223Zm-22.5-5.811h22.034V123.949H127.94Z" fill="#022b3e"/>
      <path id="Path_12" data-name="Path 12" d="M103.709,158.217a2.9,2.9,0,0,1-1.82-5.17,8.415,8.415,0,0,0,2.746-3.577,7.122,7.122,0,0,0-.3-5.289,1.543,1.543,0,0,0-1.143-.749c-1.635-.24-4.387,1.426-5.635,2.514a2.989,2.989,0,0,1-4.1-.283,2.9,2.9,0,0,1,.285-4.1c.506-.439,5.485-4.578,10.282-3.882a7.482,7.482,0,0,1,5.322,3.569,12.759,12.759,0,0,1,.739,10.223,14.092,14.092,0,0,1-4.561,6.1,2.9,2.9,0,0,1-1.248.584Z" fill="#16c7f7"/>
      <path id="Path_13" data-name="Path 13" d="M74.609,196.26a24.173,24.173,0,0,1-12.233-3.6l-.3-.214c-4.44-3.882-18.906-16.745-20.672-20.968a183.192,183.192,0,0,1-11.316-26.734c-.983-2.814-3.72-8.769-6.944-10.876-.3-.225-4.108-3.27-3.947-7.552.064-1.681.786-4.141,3.861-6.313a2.891,2.891,0,0,1,1.1-.475,20.137,20.137,0,0,1,3.452-.254c5.843,0,19.905,1.972,28.392,19.587L96.03,99.6l0,0c.8-.814,4.5-4.291,9.51-4.291a11.543,11.543,0,0,1,6.7,2.229,2.893,2.893,0,0,1,.608.575c1.907,2.487,3.843,8.458-2.268,13.519L95.8,126.453a8.9,8.9,0,0,1,7.457,10.874c-.714,3.4-3.2,6.424-7.375,8.989a2.969,2.969,0,0,1-3.961-.908,2.865,2.865,0,0,1,.921-3.98c2.729-1.672,4.371-3.486,4.752-5.25a3.675,3.675,0,0,0-.379-2.631,3.562,3.562,0,0,0-2.433-1.437c-2.677-.379-6.035,1.633-7.03,2.363a2.963,2.963,0,0,1-3.895-.392,2.864,2.864,0,0,1,.11-3.932l22.652-22.69c2.963-2.438,2.431-4.5,1.869-5.5a5.676,5.676,0,0,0-3.019-.907c-2.943,0-5.234,2.485-5.257,2.511L57.05,145.917a2.926,2.926,0,0,1-2.626.766,2.877,2.877,0,0,1-2.1-1.788c-6.881-17.946-19.52-19.884-24.635-19.884-.764,0-1.374.042-1.788.083a2.282,2.282,0,0,0-.917,1.444,4.5,4.5,0,0,0,1.552,2.678c5.516,3.7,8.7,12.714,9.051,13.736a178.233,178.233,0,0,0,11.019,26,2.644,2.644,0,0,1,.216.516c.736,1.646,9.333,10.089,18.8,18.443a18.245,18.245,0,0,0,9.047,2.675,12.383,12.383,0,0,0,7.771-2.55l25.876-25.391c2.823-3.331,3.427-5.549,3.011-6.473-.36-.8-1.8-1.521-3.754-1.888l-2.646-.5,1.31-2.352a2.882,2.882,0,0,0,.222-.524,3.544,3.544,0,0,0,.128-.586l.276-2.048,2.026.407c3.881.78,6.548,2.557,7.712,5.137,1.561,3.459.2,7.74-4.05,12.724L86.38,192.235A18.586,18.586,0,0,1,74.609,196.26Z" fill="#16c7f7"/>
      <path id="Path_14" data-name="Path 14" d="M48.1,107a1.678,1.678,0,0,1-1.324-.655L37.121,93.963a1.86,1.86,0,0,1,.167-2.458,1.7,1.7,0,0,1,2.482.184l9.656,12.385a1.86,1.86,0,0,1-.167,2.458A1.67,1.67,0,0,1,48.1,107Z" fill="#16c7f7"/>
      <path id="Path_15" data-name="Path 15" d="M70.236,107a1.647,1.647,0,0,1-1.208-.529,1.843,1.843,0,0,1-.052-2.445l10.47-12.174a1.693,1.693,0,0,1,2.473-.058,1.843,1.843,0,0,1,.05,2.443L71.5,106.415A1.668,1.668,0,0,1,70.236,107Z" fill="#16c7f7"/>
      <path id="Path_16" data-name="Path 16" d="M59.5,107a1.861,1.861,0,0,1-1.937-1.771v-17.1a1.945,1.945,0,0,1,3.874,0v17.1A1.862,1.862,0,0,1,59.5,107Zm0-18.716v16.779a.152.152,0,0,0,.07-.014L59.5,88.288Z" fill="#16c7f7"/>
    </g>
  </g>
</svg>
