<?xml version="1.0" encoding="utf-8"?>
<!-- Generator: Adobe Illustrator 19.2.1, SVG Export Plug-In . SVG Version: 6.00 Build 0)  -->
<svg version="1.1" id="Layer_1" xmlns="http://www.w3.org/2000/svg" xmlns:xlink="http://www.w3.org/1999/xlink" x="0px" y="0px"
	 viewBox="0 0 1574 680" style="enable-background:new 0 0 1574 680;" xml:space="preserve">
<style type="text/css">
	.st0{fill:#012C3D;}
	.st1{fill:#78BDC4;}
	.st2{fill:#F7444E;}
	.st3{fill:#ACD4F8;}
	.st4{fill:#3DC7C9;}
	.st5{fill:#00B2AD;}
	.st6{fill:#FF5C70;}
	.st7{fill:#FFFFFF;}
	.st8{clip-path:url(#SVGID_2_);}
	.st9{fill:#EA3F5C;}
	.st10{fill:#E4EFFF;}
	.st11{fill:#9BB6CC;}
	.st12{fill:#B2CDE0;}
	.st13{clip-path:url(#SVGID_4_);fill:#012C3D;}
	.st14{fill:#194866;}
	.st15{fill:#161711;}
	.st16{fill:#163F59;}
	.st17{fill:#D4EDFF;}
	.st18{fill:#E9F6FF;}
	.st19{fill:#E9D6B8;}
	.st20{fill:#7DC2F5;}
	.st21{fill:#E2C59C;}
	.st22{fill:#B6C2C9;}
	.st23{fill:#879BA6;}
	.st24{fill:#D7DFE2;}
	.st25{fill:#7EB3FF;}
	.st26{fill-rule:evenodd;clip-rule:evenodd;fill:#A8D3F7;}
	.st27{fill-rule:evenodd;clip-rule:evenodd;fill:#3091D8;}
	.st28{fill-rule:evenodd;clip-rule:evenodd;fill:#FFFFFF;}
	.st29{fill:#FB394B;}
	.st30{fill-rule:evenodd;clip-rule:evenodd;fill:#B7D9F9;}
	.st31{fill-rule:evenodd;clip-rule:evenodd;fill:#217DC5;}
	.st32{fill:#3091D8;}
	.st33{fill-rule:evenodd;clip-rule:evenodd;fill:#F7444E;}
	.st34{fill-rule:evenodd;clip-rule:evenodd;fill:#FF5668;}
	.st35{fill:#003849;}
	.st36{fill:#FFDFBA;}
	.st37{fill:#FFEBD2;}
	.st38{fill:#42434D;}
	.st39{fill:#FF6473;}
	.st40{fill:#FFF3E4;}
	.st41{fill:#4D4E59;}
	.st42{fill:#2C2C33;}
	.st43{fill:#D6F4FC;}
	.st44{fill:#BDEFFC;}
	.st45{fill:#E8F8FC;}
	.st46{fill:#FFD6A6;}
</style>
<path class="st0" d="M1246.7,661h-246.6c-7.5,0-13.6-6.1-13.6-13.6v0c0-7.5,6.1-13.6,13.6-13.6h246.6c7.5,0,13.6,6.1,13.6,13.6v0
	C1260.4,654.9,1254.3,661,1246.7,661z"/>
<g>
	<rect x="63.8" y="277" class="st1" width="10.9" height="4.7"/>
	<rect x="80.7" y="277" class="st1" width="10.9" height="4.7"/>
	<rect x="97.7" y="277" class="st1" width="10.9" height="4.7"/>
	<rect x="114.6" y="277" class="st1" width="10.9" height="4.7"/>
	<rect x="131.6" y="277" class="st1" width="10.9" height="4.7"/>
	<rect x="148.5" y="277" class="st1" width="10.9" height="4.7"/>
	<rect x="165.5" y="277" class="st1" width="10.9" height="4.7"/>
	<rect x="182.4" y="277" class="st1" width="10.9" height="4.7"/>
	<rect x="199.4" y="277" class="st1" width="10.9" height="4.7"/>
	<rect x="216.3" y="277" class="st1" width="10.9" height="4.7"/>
	<rect x="233.3" y="277" class="st1" width="10.9" height="4.7"/>
	<rect x="250.2" y="277" class="st1" width="10.9" height="4.7"/>
	<rect x="267.2" y="277" class="st1" width="10.9" height="4.7"/>
	<rect x="284.1" y="277" class="st1" width="10.9" height="4.7"/>
	<rect x="301.1" y="277" class="st1" width="10.9" height="4.7"/>
	<rect x="318" y="277" class="st1" width="10.9" height="4.7"/>
	<rect x="335" y="277" class="st1" width="10.9" height="4.7"/>
	<rect x="351.9" y="277" class="st1" width="10.9" height="4.7"/>
	<rect x="368.9" y="277" class="st1" width="10.9" height="4.7"/>
	<rect x="385.8" y="277" class="st1" width="10.9" height="4.7"/>
</g>
<g>
	<rect x="497.8" y="277" class="st1" width="10.9" height="4.7"/>
	<rect x="514.8" y="277" class="st1" width="10.9" height="4.7"/>
	<rect x="531.7" y="277" class="st1" width="10.9" height="4.7"/>
	<rect x="548.7" y="277" class="st1" width="10.9" height="4.7"/>
	<rect x="565.6" y="277" class="st1" width="10.9" height="4.7"/>
	<rect x="582.6" y="277" class="st1" width="10.9" height="4.7"/>
	<rect x="599.5" y="277" class="st1" width="10.9" height="4.7"/>
	<rect x="616.5" y="277" class="st1" width="10.9" height="4.7"/>
	<rect x="633.4" y="277" class="st1" width="10.9" height="4.7"/>
	<rect x="650.4" y="277" class="st1" width="10.9" height="4.7"/>
	<rect x="667.3" y="277" class="st1" width="10.9" height="4.7"/>
	<rect x="684.3" y="277" class="st1" width="10.9" height="4.7"/>
	<rect x="701.2" y="277" class="st1" width="10.9" height="4.7"/>
	<rect x="718.2" y="277" class="st1" width="10.9" height="4.7"/>
	<rect x="735.1" y="277" class="st1" width="10.9" height="4.7"/>
	<rect x="752.1" y="277" class="st1" width="10.9" height="4.7"/>
	<rect x="769" y="277" class="st1" width="10.9" height="4.7"/>
	<rect x="786" y="277" class="st1" width="10.9" height="4.7"/>
	<rect x="802.9" y="277" class="st1" width="10.9" height="4.7"/>
	<rect x="819.9" y="277" class="st1" width="10.9" height="4.7"/>
</g>
<g>
	<rect x="306.5" y="152.6" class="st1" width="10.9" height="4.7"/>
	<rect x="323.4" y="152.6" class="st1" width="10.9" height="4.7"/>
	<rect x="340.4" y="152.6" class="st1" width="10.9" height="4.7"/>
	<rect x="357.3" y="152.6" class="st1" width="10.9" height="4.7"/>
	<rect x="374.3" y="152.6" class="st1" width="10.9" height="4.7"/>
	<rect x="391.2" y="152.6" class="st1" width="10.9" height="4.7"/>
	<rect x="408.2" y="152.6" class="st1" width="10.9" height="4.7"/>
	<rect x="425.1" y="152.6" class="st1" width="10.9" height="4.7"/>
	<rect x="442.1" y="152.6" class="st1" width="10.9" height="4.7"/>
	<rect x="459" y="152.6" class="st1" width="10.9" height="4.7"/>
	<rect x="476" y="152.6" class="st1" width="10.9" height="4.7"/>
	<rect x="492.9" y="152.6" class="st1" width="10.9" height="4.7"/>
	<rect x="509.9" y="152.6" class="st1" width="10.9" height="4.7"/>
	<rect x="526.8" y="152.6" class="st1" width="10.9" height="4.7"/>
	<rect x="543.8" y="152.6" class="st1" width="10.9" height="4.7"/>
	<rect x="560.7" y="152.6" class="st1" width="10.9" height="4.7"/>
	<rect x="577.7" y="152.6" class="st1" width="10.9" height="4.7"/>
	<rect x="594.6" y="152.6" class="st1" width="10.9" height="4.7"/>
	<rect x="611.6" y="152.6" class="st1" width="10.9" height="4.7"/>
	<rect x="628.5" y="152.6" class="st1" width="10.9" height="4.7"/>
</g>
<g>
	<rect x="772" y="38.3" class="st1" width="10.9" height="4.7"/>
	<rect x="789" y="38.3" class="st1" width="10.9" height="4.7"/>
	<rect x="805.9" y="38.3" class="st1" width="10.9" height="4.7"/>
	<rect x="822.9" y="38.3" class="st1" width="10.9" height="4.7"/>
	<rect x="839.8" y="38.3" class="st1" width="10.9" height="4.7"/>
	<rect x="856.8" y="38.3" class="st1" width="10.9" height="4.7"/>
	<rect x="873.7" y="38.3" class="st1" width="10.9" height="4.7"/>
	<rect x="890.7" y="38.3" class="st1" width="10.9" height="4.7"/>
	<rect x="907.6" y="38.3" class="st1" width="10.9" height="4.7"/>
	<rect x="924.6" y="38.3" class="st1" width="10.9" height="4.7"/>
	<rect x="941.5" y="38.3" class="st1" width="10.9" height="4.7"/>
	<rect x="958.5" y="38.3" class="st1" width="10.9" height="4.7"/>
	<rect x="975.4" y="38.3" class="st1" width="10.9" height="4.7"/>
	<rect x="992.4" y="38.3" class="st1" width="10.9" height="4.7"/>
	<rect x="1009.3" y="38.3" class="st1" width="10.9" height="4.7"/>
	<rect x="1026.3" y="38.3" class="st1" width="10.9" height="4.7"/>
	<rect x="1043.2" y="38.3" class="st1" width="10.9" height="4.7"/>
	<rect x="1060.2" y="38.3" class="st1" width="10.9" height="4.7"/>
	<rect x="1077.1" y="38.3" class="st1" width="10.9" height="4.7"/>
	<rect x="1094.1" y="38.3" class="st1" width="10.9" height="4.7"/>
	<rect x="1110.4" y="123" class="st1" width="4.7" height="10.9"/>
	<rect x="1110.4" y="106.1" class="st1" width="4.7" height="10.9"/>
	<rect x="1110.4" y="89.1" class="st1" width="4.7" height="10.9"/>
	<rect x="1110.4" y="72.2" class="st1" width="4.7" height="10.9"/>
	<rect x="1110.4" y="55.2" class="st1" width="4.7" height="10.9"/>
	<rect x="1110.4" y="38.3" class="st1" width="4.7" height="10.9"/>
</g>
<g>
	<rect x="644.9" y="414" class="st1" width="10.9" height="4.7"/>
	<rect x="661.9" y="414" class="st1" width="10.9" height="4.7"/>
	<rect x="678.8" y="414" class="st1" width="10.9" height="4.7"/>
	<rect x="695.8" y="414" class="st1" width="10.9" height="4.7"/>
	<rect x="712.7" y="414" class="st1" width="10.9" height="4.7"/>
	<rect x="729.7" y="414" class="st1" width="10.9" height="4.7"/>
	<rect x="746.6" y="414" class="st1" width="10.9" height="4.7"/>
	<rect x="763.6" y="414" class="st1" width="10.9" height="4.7"/>
	<rect x="780.5" y="414" class="st1" width="10.9" height="4.7"/>
	<rect x="797.5" y="414" class="st1" width="10.9" height="4.7"/>
	<rect x="814.4" y="414" class="st1" width="10.9" height="4.7"/>
	<rect x="831.4" y="414" class="st1" width="10.9" height="4.7"/>
	<rect x="848.3" y="414" class="st1" width="10.9" height="4.7"/>
	<rect x="865.3" y="414" class="st1" width="10.9" height="4.7"/>
	<rect x="882.2" y="414" class="st1" width="10.9" height="4.7"/>
	<rect x="899.2" y="414" class="st1" width="10.9" height="4.7"/>
	<rect x="916.1" y="414" class="st1" width="10.9" height="4.7"/>
	<rect x="933.1" y="414" class="st1" width="10.9" height="4.7"/>
	<rect x="950" y="414" class="st1" width="10.9" height="4.7"/>
	<rect x="967" y="414" class="st1" width="10.9" height="4.7"/>
</g>
<g>
	<path class="st2" d="M1490.6,511.8c-13.9-17.1-32.9-26.7-55-27.7c-1.4-0.1-2.7-0.1-4.1-0.1c0,0,0,0,0,0s0,0,0,0
		c-8.5,0-15.6,1.1-23.6,3.7c-0.2,0.1-0.4,0.2-0.6,0.2c0.2-0.1,0.4-0.1,0.6-0.2l7.3,22.5c5.2-1.7,10.7-2.6,16.4-2.6h0
		c17.6,0,33.2,8.6,42.8,21.8l19.1-13.9C1492.5,514.2,1491.6,513,1490.6,511.8z"/>
	<path class="st3" d="M1474.4,529.4c6.4,8.7,10.1,19.5,10.1,31.1h23.6l0,0v0c0,1.4,0,2.8-0.1,4.1c0,0.1,0,0.1,0,0.2
		c0.1-1.4,0.1-2.9,0.1-4.3c0-16.5-5.2-31.7-14.1-44.2c-1.1-1.5-1.5-2-0.6-0.8L1474.4,529.4z"/>
	<path class="st0" d="M1462.6,603.3c-8.7,6.4-19.5,10.1-31.1,10.1c-29.2,0-53-23.7-53-53c0-23.5,15.3-43.5,36.6-50.4l-7.3-22.5
		c-0.2,0.1-0.4,0.2-0.6,0.2c-0.9,0.3-1.9,0.6-2.8,1c-0.3,0.1-0.5,0.2-0.8,0.3c-28.8,11.1-47.5,37.2-48.6,68.2c0,0.7,0,1.4,0,2.2
		c0,0.3,0,0.6,0,1c0,0.1,0,0.1,0,0.2c0,1,0,2,0.1,3.1c0,0.3,0,0.6,0,0.9c0,0.8,0.1,1.6,0.2,2.4c0,0.6,0.1,1.1,0.1,1.7
		c0,0.4,0.1,0.9,0.2,1.3c0.1,0.9,0.2,1.8,0.4,2.7c0,0.1,0,0.1,0,0.2c1.1,6.5,2.9,12.7,5.5,18.6c0.3,0.7,0.6,1.4,1,2.2c0,0,0,0,0,0.1
		c11.3,23.4,34.1,40.1,61,42.9c0.2,0,0.3,0,0.5,0c0.9,0.1,1.8,0.2,2.7,0.2c0.5,0,0.9,0.1,1.4,0.1c0.6,0,1.2,0,1.8,0
		c0.5,0,1.1,0,1.6,0c16.8,0,32.4-5.4,45-14.6L1462.6,603.3z"/>
	<path class="st4" d="M1480.1,619.7c16.2-13.1,25.7-30.8,27.6-51.3c0-0.1,0-0.3,0-0.4c0.1-1,0.2-2.1,0.2-3.2c0-0.1,0-0.1,0-0.2
		c0.1-1.4,0.1-2.7,0.1-4.1v0h-23.6l0,0c0,17.6-8.6,33.2-21.8,42.8l13.9,19.1l0,0c0,0,0,0,0,0
		C1477.8,621.6,1478.9,620.7,1480.1,619.7z"/>
</g>
<g>
	<path class="st4" d="M1265.6,54.5c0,0.1-0.1,0.1-0.2,0.1h-11.6c-0.1,0-0.2-0.1-0.2-0.1V45c0-0.1,0.1-0.1,0.2-0.1h11.6
		c0.1,0,0.2,0.1,0.2,0.1V54.5z"/>
	<path class="st4" d="M1281.9,54.5c0,0.1-0.1,0.1-0.2,0.1h-11.6c-0.1,0-0.2-0.1-0.2-0.1V34.4c0-0.1,0.1-0.1,0.2-0.1h11.6
		c0.1,0,0.2,0.1,0.2,0.1V54.5z"/>
	<path class="st4" d="M1298.2,54.6c0,0-0.1,0.1-0.2,0.1h-11.6c-0.1,0-0.2,0-0.2-0.1V37.9c0,0,0.1-0.1,0.2-0.1h11.6
		c0.1,0,0.2,0,0.2,0.1V54.6z"/>
	<path class="st4" d="M1314.5,54.5c0,0.1-0.1,0.1-0.2,0.1h-11.6c-0.1,0-0.2-0.1-0.2-0.1V45c0-0.1,0.1-0.1,0.2-0.1h11.6
		c0.1,0,0.2,0.1,0.2,0.1V54.5z"/>
	<path class="st4" d="M1330.8,54.5c0,0.1-0.1,0.2-0.2,0.2H1319c-0.1,0-0.2-0.1-0.2-0.2V23.8c0-0.1,0.1-0.2,0.2-0.2h11.6
		c0.1,0,0.2,0.1,0.2,0.2V54.5z"/>
	<path class="st4" d="M1347.1,54.6c0,0-0.1,0.1-0.2,0.1h-11.6c-0.1,0-0.2,0-0.2-0.1V37.9c0,0,0.1-0.1,0.2-0.1h11.6
		c0.1,0,0.2,0,0.2,0.1V54.6z"/>
</g>
<g>
	<g>
		<path class="st2" d="M1332.7,58.7c0-0.1-0.1-0.1-0.2-0.1h-11.6c-0.1,0-0.2,0.1-0.2,0.1v9.6c0,0.1,0.1,0.1,0.2,0.1h11.6
			c0.1,0,0.2-0.1,0.2-0.1V58.7z"/>
		<path class="st2" d="M1349,58.7c0-0.1-0.1-0.1-0.2-0.1h-11.6c-0.1,0-0.2,0.1-0.2,0.1v20.2c0,0.1,0.1,0.1,0.2,0.1h11.6
			c0.1,0,0.2-0.1,0.2-0.1V58.7z"/>
		<path class="st2" d="M1365.4,58.6c0,0-0.1-0.1-0.2-0.1h-11.6c-0.1,0-0.2,0-0.2,0.1v16.7c0,0,0.1,0.1,0.2,0.1h11.6
			c0.1,0,0.2,0,0.2-0.1V58.6z"/>
		<path class="st2" d="M1381.6,58.7c0-0.1-0.1-0.1-0.2-0.1h-11.6c-0.1,0-0.2,0.1-0.2,0.1v9.6c0,0.1,0.1,0.1,0.2,0.1h11.6
			c0.1,0,0.2-0.1,0.2-0.1V58.7z"/>
		<path class="st2" d="M1398,58.7c0-0.1-0.1-0.2-0.2-0.2h-11.6c-0.1,0-0.2,0.1-0.2,0.2v30.7c0,0.1,0.1,0.2,0.2,0.2h11.6
			c0.1,0,0.2-0.1,0.2-0.2V58.7z"/>
		<path class="st2" d="M1414.3,58.6c0,0-0.1-0.1-0.2-0.1h-11.6c-0.1,0-0.2,0-0.2,0.1v16.7c0,0,0.1,0.1,0.2,0.1h11.6
			c0.1,0,0.2,0,0.2-0.1V58.6z"/>
	</g>
</g>
<g>
	<path class="st4" d="M1230.9,634.6c0,0-4.5-2.2-9.7-4.2c-5.5-2.1-12.2-4.7-16.1-6.6c-6.9-3.3-7.5-5.5-10-16.7
		c-2.8-12.3-5.4-38.2-6.5-49.6h-130.2c-1.1,11.3-3.7,37.3-6.5,49.6c-2.6,11.3-3.2,13.4-10,16.7c-3.9,1.9-10.5,4.4-16,6.5l0,0
		c-5.3,2-9.6,3.5-9.6,3.5s-4.2,2.3,2.5,2.7h209.3C1234.4,636.6,1230.9,634.6,1230.9,634.6z"/>
	<path class="st5" d="M1189.9,571.2c-0.6-5.4-1-10.2-1.4-13.7h-130.2c-0.3,3.5-0.8,8.3-1.4,13.7H1189.9z"/>
	<path class="st0" d="M1434.2,489.3V127.5c0-9.4-7.6-17-17-17H829.7c-9.4,0-17,7.6-17,17v361.8H1434.2z"/>
	<path class="st4" d="M811.9,488.5v52.3c0,10.1,8.2,18.2,18.2,18.2h587.5c10.1,0,18.3-8.2,18.3-18.2v-52.3H811.9z"/>
	<path class="st6" d="M849.1,457.1h548.7c4.2,0,7.6-3.4,7.6-7.6V147.2c0-4.2-3.4-7.6-7.6-7.6H849.1c-4.2,0-7.6,3.4-7.6,7.6v302.4
		C841.5,453.7,844.9,457.1,849.1,457.1z"/>
</g>
<g>
	<rect x="878.8" y="161.1" class="st7" width="11.9" height="46.2"/>
	<rect x="861.7" y="178.2" class="st7" width="46.2" height="11.9"/>
</g>
<g>
	<defs>
		<rect id="SVGID_1_" x="926.1" y="144.6" width="369.8" height="312.5"/>
	</defs>
	<clipPath id="SVGID_2_">
		<use xlink:href="#SVGID_1_"  style="overflow:visible;"/>
	</clipPath>
	<g class="st8">
		<rect x="947.1" y="171" class="st9" width="330.5" height="467.5"/>
		<rect x="937.5" y="159.1" class="st10" width="330.5" height="467.5"/>
		<rect x="1055.6" y="196.5" class="st11" width="159.3" height="7"/>
		<rect x="1056.5" y="560.4" class="st12" width="98.5" height="5.1"/>
		<rect x="1056.5" y="569.1" class="st12" width="98.5" height="5.1"/>
		<rect x="1056.5" y="577.8" class="st12" width="98.5" height="5.1"/>
		<rect x="1056.5" y="560.4" class="st11" width="95.8" height="5.1"/>
		<rect x="1056.5" y="569.1" class="st11" width="61.7" height="5.1"/>
		<rect x="1056.5" y="577.8" class="st11" width="89" height="5.1"/>
		<rect x="985.8" y="495.6" class="st12" width="85" height="4.3"/>
		<rect x="985.8" y="503.5" class="st12" width="63.6" height="4.3"/>
		<rect x="985.8" y="511.4" class="st12" width="69.6" height="4.3"/>
		<rect x="972.7" y="561.1" class="st12" width="52.4" height="4.3"/>
		<rect x="972.7" y="569" class="st12" width="63.6" height="4.3"/>
		<rect x="972.7" y="576.8" class="st12" width="43.6" height="4.3"/>
		<rect x="985.8" y="519.2" class="st12" width="57.2" height="4.3"/>
		<rect x="985.8" y="527.1" class="st12" width="85.8" height="4.3"/>
		<rect x="972.2" y="495.6" class="st12" width="6.7" height="4.3"/>
		<rect x="972.2" y="503.5" class="st12" width="6.7" height="4.3"/>
		<rect x="972.2" y="511.4" class="st12" width="6.7" height="4.3"/>
		<rect x="972.2" y="519.2" class="st12" width="6.7" height="4.3"/>
		<rect x="972.2" y="527.1" class="st12" width="6.7" height="4.3"/>
		<rect x="1012.6" y="314.5" class="st11" width="136.8" height="4.3"/>
		<rect x="972.4" y="314.5" class="st11" width="14.4" height="4.3"/>
		<rect x="1012.6" y="322.4" class="st12" width="213.8" height="4.3"/>
		<rect x="1012.6" y="330.3" class="st12" width="85.7" height="4.3"/>
		<rect x="1012.6" y="338.2" class="st12" width="97.6" height="4.3"/>
		<rect x="1012.6" y="346.1" class="st12" width="80.5" height="4.3"/>
		<rect x="1012.6" y="363.1" class="st11" width="94.2" height="4.3"/>
		<rect x="972.4" y="363.1" class="st11" width="14.4" height="4.3"/>
		<rect x="1012.6" y="370.9" class="st12" width="121.5" height="4.3"/>
		<rect x="1012.6" y="378.8" class="st12" width="85.7" height="4.3"/>
		<rect x="1012.6" y="386.7" class="st12" width="97.6" height="4.3"/>
		<rect x="1012.6" y="404.7" class="st11" width="186.5" height="4.3"/>
		<rect x="972.4" y="404.7" class="st11" width="14.4" height="4.3"/>
		<rect x="1012.6" y="412.5" class="st12" width="213.8" height="4.3"/>
		<rect x="1012.6" y="420.4" class="st12" width="201" height="4.3"/>
		<rect x="1012.6" y="437" class="st11" width="186.5" height="4.3"/>
		<rect x="972.4" y="437" class="st11" width="14.4" height="4.3"/>
		<rect x="989.3" y="314.5" class="st11" width="14.4" height="4.3"/>
		<rect x="989.3" y="363.1" class="st11" width="14.4" height="4.3"/>
		<rect x="989.3" y="404.7" class="st11" width="14.4" height="4.3"/>
		<rect x="989.3" y="437" class="st11" width="14.4" height="4.3"/>
		<rect x="1012.6" y="444.9" class="st12" width="213.8" height="4.3"/>
		<rect x="1012.6" y="452.8" class="st12" width="201" height="4.3"/>
		<rect x="972.2" y="297.6" class="st11" width="72" height="7"/>
		<rect x="972.2" y="482.5" class="st11" width="54" height="7"/>
		<rect x="972.2" y="547.2" class="st11" width="54" height="7"/>
		<rect x="1119.8" y="495.6" class="st12" width="102.3" height="4.3"/>
		<rect x="1119.8" y="503.5" class="st12" width="63.6" height="4.3"/>
		<rect x="1119.8" y="511.4" class="st12" width="69.6" height="4.3"/>
		<rect x="1119.8" y="519.2" class="st12" width="57.2" height="4.3"/>
		<rect x="1106.3" y="495.6" class="st12" width="6.7" height="4.3"/>
		<rect x="1106.3" y="503.5" class="st12" width="6.7" height="4.3"/>
		<rect x="1106.3" y="511.4" class="st12" width="6.7" height="4.3"/>
		<rect x="1106.3" y="519.2" class="st12" width="6.7" height="4.3"/>
		<rect x="1106.3" y="482.5" class="st11" width="54" height="7"/>
		<rect x="1055.6" y="215.9" class="st12" width="68.7" height="4.3"/>
		<rect x="1055.6" y="223.8" class="st12" width="66.3" height="4.3"/>
		<rect x="1134.2" y="215.9" class="st12" width="68.7" height="4.3"/>
		<rect x="1134.2" y="223.8" class="st12" width="66.3" height="4.3"/>
		<rect x="1055.6" y="254.2" class="st12" width="155" height="4.3"/>
		<rect x="1055.6" y="262.1" class="st12" width="110.7" height="4.3"/>
		<rect x="1055.6" y="270.6" class="st12" width="84.1" height="4.3"/>
		<g>
			<defs>
				<rect id="SVGID_3_" x="971.6" y="196.5" width="69.1" height="85.8"/>
			</defs>
			<clipPath id="SVGID_4_">
				<use xlink:href="#SVGID_3_"  style="overflow:visible;"/>
			</clipPath>
			<path class="st13" d="M1037.8,282.2h-63.2c-1.6,0-2.9-1.3-2.9-2.9v-79.9c0-1.6,1.3-2.9,2.9-2.9h63.2c1.6,0,2.9,1.3,2.9,2.9v79.9
				C1040.7,280.9,1039.4,282.2,1037.8,282.2z"/>
		</g>
	</g>
</g>
<g>
	<path class="st14" d="M1334.1,457.7c0,0,44.4,0.1,61.5,0.4c11.8,0.2,12.9-16.7,8.3-19.3c-14.2-7.7-58.4-11.7-58.4-11.7l-30.1,27.7
		C1315.3,454.7,1317,454.7,1334.1,457.7z"/>
	<path class="st15" d="M1283.2,542.5c-0.7,0.8-0.2,3-0.2,3s11.9,1.3,15.8,0.4c1-0.2,2.7-1.1,4.3-2c0.3-0.2,0.7-1.1,1-1.2
		c0.5-0.3,0.7,0.2,1.1-0.1c1.1-0.7,1.8-1.2,1.8-1.3c1-5.5-0.3-7.7-0.3-7.7s-10.2-3.4-12.1-1C1290.1,538.2,1284.7,540.7,1283.2,542.5
		z"/>
	<path class="st15" d="M1394.8,536.5l0.8,9l9,0.9c0,0,0.6-1.2,1.4-1.1c0.6,0.1,1.4,1.4,2.2,1.5c1.9,0.2,4,0.4,4.8,0.5
		c1.7,0.2,18.1,1.8,18.1,1.8s0.6-1.8,0.2-2.5c-0.2-0.4-1.7-1.1-2.7-1.5c-4.5-1.8-17.5-7.2-19.4-11.9
		C1407,527.5,1394.8,536.5,1394.8,536.5z"/>
	<path class="st14" d="M1311.8,441.4c0,0-2.9,27.9-2.5,42.6c0.3,11.1,0.3,32.4-2.3,50.6c-0.2,1.1-14.4,0.3-14.4,0.3
		s-5.1-69.1-6.6-80.5C1284.5,442.9,1288.9,434.7,1311.8,441.4z"/>
	<path class="st16" d="M1401.1,448.1c0,0-4.6,7.2-17.1,8.9c-4.5,0.6,7.3,80.9,7.3,80.9l18.5-5.9l-3.6-88.8L1401.1,448.1z"/>
	<path class="st16" d="M1350,457c0,0-24.2,3.5-40.4,5.2c-5.9,0.6-11.1-16-11.8-16.7c-4.3-4.5-8.6-4-8.5-4.1
		c3.5-3.8,21.7-7.3,40.6-11.8c19-4.4,21.9-1.6,21.9-1.6L1350,457z"/>
	<polygon class="st16" points="1309.1,456.8 1307.3,511.1 1305.4,523.6 1305.2,511.1 1305.6,503.2 1301.3,491 1299,462.8 
		1302.3,464 1301.9,451.6 	"/>
	<path class="st14" d="M1400.5,441.3l4.5,1.2l1.7,65.2l-9.5,23.3l4.5-15.9l-1.9-32.8c0,0-6.6,15.9-6.6,15.1c0-0.8,5.6-34.5,5.6-34.5
		s-6.2,5.2-5.6,5C1393.9,467.7,1397,444.4,1400.5,441.3z"/>
	<path class="st14" d="M1330,429.6c-19,4.5-37.1,8-40.6,11.8c-0.1,0.2,4.1-0.4,8.5,4.1c0.2,0.2,1.3,5.5,2.1,7.4
		c-3.1-5.6,41.5-21.3,51.1-25.4C1349.2,426.9,1343.9,426.3,1330,429.6z"/>
	<path class="st17" d="M1325.7,365.1c0,0-17.3,2.9-19.3,6.5c-11.9,22-20,42.9-22.3,49.3c-1.7,4.9-6.1,23.1,5,24.5
		c1.9,0.2,9.6-1.6,9.6-1.6l5.4-1.9l-2.3-4.4l-0.1-3.4c0,0,6.9-16.7,15.4-32.5C1325.7,385.8,1325.7,365.1,1325.7,365.1z"/>
	<path class="st18" d="M1302.8,440.5c0,0,10.5,4.8,14.2,10.2c3.8,5.4,5.1,3.2,5.1,3.2l16.4-14C1338.5,440,1322.9,434.4,1302.8,440.5
		z"/>
	<path class="st18" d="M1381,429.8l16.1,5.4c0,0-6.5-0.3-12.1,4.3c-3.9,3.2-11.8,13.2-11.8,13.2s-17.2-8.9-20.4-11.6
		C1349.5,438.4,1373.2,429.8,1381,429.8z"/>
	<path class="st17" d="M1370.9,367.2c0,0,13.6,0.3,16.4,11.7c5.5,22.7,4.8,26.7,5.9,48.3c0.1,2.1-0.1,7.7-12.9,8
		c-5.2,0.1-4.9-9.5-4.9-9.5s-3.3-9.4-6.8-25.3C1364.9,384.4,1370.9,367.2,1370.9,367.2z"/>
	<path class="st18" d="M1381,369.6l-25.2-10.6l-22.1-1.5l-24.1,11.3c0,0-3.9,0.6-2.4,19.6c1.5,19.9,6.3,44.6,6.3,44.6l62.6,2
		c0,0-1.6-36.2,1.3-52.3C1378.2,377.1,1378.2,372.9,1381,369.6z"/>
	<g>
		<path class="st19" d="M1381.1,422.4l-30.5,12.5c0,0,21.7,3.1,35.2,0.3C1394.9,433.3,1381.5,422,1381.1,422.4z"/>
	</g>
	<g>
		<path class="st19" d="M1298.9,428.6l31.6,1.7c0,0-30.5,14-31.5,11.6C1293.4,428.2,1298.9,428.6,1298.9,428.6z"/>
		<g>
			<path class="st19" d="M1316.3,427.6c1.9-0.9,1.7-0.9,1.7-0.9s1.7,2,4.1,2.4c1.2,0.2,5.1,0.2,5.1,0.2l5.8,0.1l2.7-0.2
				c0,0,1.5-0.2,1.9,0.1c1.2,0.8,0.2,1.4,0.2,1.4l-10.4,1.5l10,1.2c0,0,1.3,0.4,1.3,1.1c0.1,0.6-0.4,0.6-0.4,0.6l-11.7,1.2l5.1,1.2
				c0,0,1.2,0.4,1.3,1.1c0.1,0.7,0.1,0.9,0.1,0.9l-10.7-1.1C1322.7,438.6,1314.5,428.5,1316.3,427.6z"/>
			<path class="st19" d="M1327.9,434.1l7,1.3c0,0,1.6,0.1,2.3,0.6c0.8,0.6,0.3,1.3,0.3,1.3l-10.8-0.9L1327.9,434.1z"/>
		</g>
	</g>
	<path class="st17" d="M1295.5,444c0,0-10.2,5.6-9.7-14.8c0.1-3.4,13.4-2.4,13.4-2.4l15.6,0.8l4.8,11.8L1295.5,444z"/>
	<path class="st18" d="M1300.3,435.4l16.8-2.2l-2.3-5.6l-15.6-0.8c0,0-1.6-0.5-8,1.9C1281.5,434.9,1300.3,435.4,1300.3,435.4z"/>
	<path class="st17" d="M1389.8,434.8c0,0,3-4.2,2.8-5.4c-1.2-7.6-10.1-9.1-10.1-9.1l-23.4,6.3l5.4,11.8L1389.8,434.8z"/>
	<path class="st20" d="M1330.7,362.9c0,0,25.5-7.8,26.1,0.3c0.5,8.1-4,42.5-6.5,47.8c-2.4,5.4-10.8-4.3-14.8-21.8
		C1331.5,371.7,1330.7,362.9,1330.7,362.9z"/>
	<path class="st17" d="M1334,365.9l5.5,23.1l0.5,19.4l-11-30.6l3-3l-4.6-0.3c0,0,0.3-11,3.2-14.5c3-3.5,8.2-3.2,5.6-0.8
		C1333.7,361.5,1334,365.9,1334,365.9z"/>
	<path class="st17" d="M1354.9,359.1c0,0,4-0.3,5.4,3.2c1.3,3.5,2.4,11.6,2.4,11.6l-4,1.9l3.2,3l-12.1,33.3c0,0,0.8-26.9,1.9-32.3
		C1352.7,374.4,1354.9,359.1,1354.9,359.1z"/>
	<g>
		<g>
			<path class="st21" d="M1354.5,365.9c-0.4,3.4-3.2,6.3-6.1,6.5c-2.8,0-5.5,0-8.3,0c-2.9-0.1-5.7-3.1-6.1-6.5
				c-0.7-5.6-1.4-11.2-2-16.7c-0.5-3.3,1.5-10.1,5.9-12c4-1.8,8.6-1.8,12.7,0c4.4,2,6.4,8.7,5.9,12
				C1355.8,354.7,1355.2,360.3,1354.5,365.9z"/>
		</g>
		<g>
			<path class="st16" d="M1343,326.5c-2.3,0-4.4,1.2-5.5,3h-2.3c-2.8,0-5.1,2.3-5.1,5.1v12.7h3.6v-5.1c0-2,1.6-3.6,3.6-3.6h2.1h-3.3
				h2.2c3.7,0,6.6-3,6.6-6.6v-5.4H1343z"/>
			<path class="st21" d="M1336.6,352c0,1.7-1.4,3.1-3.1,3.1h-0.3c-1.7,0-3.1-1.4-3.1-3.1v-3.8c0-1.7,1.4-3.1,3.1-3.1h0.3
				c1.3,0,2.4,0.8,2.9,1.9"/>
			<path class="st16" d="M1340.2,331.5v-5h2.1h5.5h3.3c3.7,0,6.6,3,6.6,6.6v5h-2.1h-5.5h-3.3
				C1343.2,338.1,1340.2,335.2,1340.2,331.5z"/>
			<path class="st19" d="M1356.7,356.8c0,2.6-2,7.1-5.4,8.5c-4.5,1.9-9.9,1.9-14.4,0c-3.3-1.4-5.3-5.9-5.4-8.5c0-7.5,0-14.9,0-22.4
				c0-2.6,2.6-4.9,5.9-4.9c4.4,0,8.9,0,13.4,0c3.3,0.1,5.9,2.3,5.9,4.9C1356.7,341.9,1356.7,349.3,1356.7,356.8z"/>
			<path class="st16" d="M1346.8,326.5c2.3,0,4.4,1.2,5.5,3h2.3c2.8,0,5.1,2.3,5.1,5.1v12.7h-3.6v-5.1c0-2-1.6-3.6-3.6-3.6h0h1.3
				h-5.8c-3.7,0-6.6-3-6.6-6.6v-5.4H1346.8z"/>
			<path class="st19" d="M1353.2,348.2c0-1.7,1.4-3.1,3.1-3.1h0.3c1.7,0,3.1,1.4,3.1,3.1v3.8c0,1.7-1.4,3.1-3.1,3.1h-0.3
				c-1.3,0-2.4-0.8-2.9-1.9"/>
			<path class="st16" d="M1341.2,332.8c0.1-0.4,0.1-0.9,0.1-1.3v-5h-2.1h-2.6c-3.7,0-6.6,3-6.6,6.6v5h1.4h0.7h2.6
				c0.5,0,0.9,0,1.4-0.1C1336.6,335.4,1338.7,333.4,1341.2,332.8z"/>
		</g>
	</g>
	<g>
		<path class="st22" d="M1371.9,439.6C1371.9,439.6,1371.9,439.6,1371.9,439.6v-2.1h-62.3v2c0,0,0,0,0,0.1l0.2,0.4
			c1.1,1.7,3,2,5.1,2h51.6c2.2,0,4.1-0.3,5.1-2L1371.9,439.6z"/>
		<g>
			<rect x="1320.1" y="438" class="st23" width="41.3" height="1.4"/>
		</g>
		<g>
			<path class="st24" d="M1371.9,437.8l0.2-40.9c0-1.1-0.9-1.9-1.9-1.9h-58.4c-1.1,0-2,0.9-2,1.9l-0.2,40.9H1371.9z"/>
			<path class="st22" d="M1344.6,416.4c0,2.1-1.7,3.8-3.8,3.8c-2.1,0-3.8-1.7-3.8-3.8c0-2.1,1.7-3.8,3.8-3.8
				C1342.9,412.6,1344.6,414.3,1344.6,416.4z"/>
		</g>
	</g>
</g>
<g>
	<g>
		<g>
			<path class="st2" d="M1446.7,254.5c0,1.9-1.5,3.4-3.4,3.4H1330c-1.9,0-3.4-1.5-3.4-3.4v-27.9l-4.7-5.3l4.7-6.2v-4.5
				c0-1.9,1.5-3.4,3.4-3.4h113.2c1.9,0,3.4,1.5,3.4,3.4V254.5z"/>
			<g>
				<rect x="1335.5" y="215.2" class="st7" width="25.7" height="4.1"/>
				<rect x="1364.7" y="215.2" class="st7" width="31.2" height="4.1"/>
				<rect x="1400" y="215.2" class="st7" width="11.7" height="4.1"/>
				<rect x="1335.5" y="225.1" class="st7" width="40.9" height="4.1"/>
				<rect x="1379.3" y="225.1" class="st7" width="6.6" height="4.1"/>
				<rect x="1390.1" y="225.1" class="st7" width="48" height="4.1"/>
				<rect x="1335.5" y="235" class="st7" width="10.5" height="4.1"/>
				<rect x="1349.5" y="235" class="st7" width="41.5" height="4.1"/>
				<rect x="1393.9" y="235" class="st7" width="24.8" height="4.1"/>
				<rect x="1335.5" y="245" class="st7" width="51.5" height="4.1"/>
				<rect x="1391" y="245" class="st7" width="10.7" height="4.1"/>
				<rect x="1406.4" y="245" class="st7" width="27.5" height="4.1"/>
			</g>
		</g>
		<g>
			<path class="st0" d="M1340.6,291.5c0,1.9,1.5,3.4,3.4,3.4h112.6c1.9,0,3.4-1.5,3.4-3.4v-5.3l4.7-5.3l-4.7-6.2v-4.5
				c0-1.9-1.5-3.4-3.4-3.4H1344c-1.9,0-3.4,1.5-3.4,3.4V291.5z"/>
			<g>
				<rect x="1430.2" y="278.7" class="st25" width="7.3" height="4.1"/>
				<rect x="1403.9" y="278.7" class="st25" width="23.4" height="4.1"/>
				<rect x="1351.8" y="278.7" class="st25" width="48" height="4.1"/>
			</g>
		</g>
	</g>
	<g>
		<circle class="st0" cx="1488.6" cy="280.2" r="15.8"/>
		<path class="st25" d="M1494.4,281.1c-1.3-0.6-2.6-1-4-1.1c0-0.3,0.1-0.7,0.1-1c0.3-0.2,0.5-0.5,0.5-0.7c0-0.3,0.1-0.6,0.1-0.9
			c0,0,0.1,0.1,0.2,0.1c0.1,0,0.3-0.1,0.3-0.2l0.1-1.4c0-0.1-0.1-0.3-0.2-0.3c-0.1,0-0.1,0-0.2,0c0-0.3,0.1-0.5,0.1-0.8
			c0-0.4,0.2-1.3-0.5-2c-1-1-3.3-1-4.3,0c-0.7,0.6-0.5,1.6-0.5,2c0,0.3,0.1,0.5,0.1,0.8c0,0-0.1,0-0.2,0c-0.1,0-0.3,0.1-0.2,0.3
			l0.1,1.4c0,0.1,0.1,0.3,0.3,0.2c0.1,0,0.1,0,0.2-0.1c0,0.3,0.1,0.6,0.1,0.9c0,0.2,0.2,0.5,0.6,0.7c0,0.3,0.1,0.7,0.1,1
			c-1.4,0.2-2.7,0.5-4,1.1c-0.4,0.2-0.7,0.8-0.6,1.2c0,0.5,0.1,1,0.1,1.5c0,0.4,0.4,0.9,0.8,0.9c3.5,0.6,7,0.6,10.5,0
			c0.4-0.1,0.8-0.5,0.8-0.9c0-0.5,0.1-1,0.1-1.5C1495.1,281.9,1494.8,281.3,1494.4,281.1z"/>
	</g>
	<g>
		<circle class="st2" cx="1301.8" cy="220.8" r="15.8"/>
		<path class="st7" d="M1307.6,221.7c-1.3-0.6-2.6-1-4-1.1c0-0.3,0.1-0.7,0.1-1c0.3-0.2,0.5-0.5,0.5-0.7c0-0.3,0.1-0.6,0.1-0.9
			c0,0,0.1,0.1,0.2,0.1c0.1,0,0.3-0.1,0.3-0.2l0.1-1.4c0-0.1-0.1-0.3-0.2-0.3c-0.1,0-0.1,0-0.2,0c0-0.3,0.1-0.5,0.1-0.8
			c0-0.4,0.2-1.3-0.5-2c-1-1-3.3-1-4.3,0c-0.7,0.6-0.5,1.6-0.5,2c0,0.3,0.1,0.5,0.1,0.8c0,0-0.1,0-0.2,0c-0.1,0-0.3,0.1-0.2,0.3
			l0.1,1.4c0,0.1,0.1,0.3,0.3,0.2c0.1,0,0.1,0,0.2-0.1c0,0.3,0.1,0.6,0.1,0.9c0,0.2,0.2,0.5,0.5,0.7c0,0.3,0.1,0.7,0.1,1
			c-1.4,0.2-2.7,0.5-4,1.1c-0.4,0.2-0.7,0.8-0.7,1.2c0,0.5,0.1,1,0.1,1.5c0,0.4,0.4,0.9,0.8,0.9c3.5,0.6,7,0.6,10.5,0
			c0.4-0.1,0.8-0.5,0.8-0.9c0-0.5,0.1-1,0.1-1.5C1308.3,222.4,1308,221.9,1307.6,221.7z"/>
	</g>
</g>
<g>
	<path class="st3" d="M1475.6,176.3c-3.4,3.6-9.1,3.7-12.7,0.4l0,0c-3.6-3.4-3.7-9.1-0.4-12.7l17-18c3.4-3.6,9.1-3.7,12.7-0.4l0,0
		c3.6,3.4,3.7,9.1,0.4,12.7L1475.6,176.3z"/>
	<path class="st4" d="M1471.2,154.9l-8.6,9.1c-3.4,3.6-3.2,9.3,0.4,12.7c3.6,3.4,9.3,3.2,12.7-0.4l8.6-9.1L1471.2,154.9z"/>
</g>
<g>
	<path class="st3" d="M1451.4,117.4c-2-1.9-2-5.1-0.1-7l0,0c1.9-2,5.1-2,7-0.1l9.8,9.6c2,1.9,2,5.1,0.1,7l0,0c-1.9,2-5.1,2-7,0.1
		L1451.4,117.4z"/>
	<path class="st4" d="M1463.3,115.2l-5-4.9c-2-1.9-5.1-1.9-7,0.1c-1.9,2-1.9,5.1,0.1,7l5,4.9L1463.3,115.2z"/>
</g>
<g>
	<polygon class="st4" points="1524.5,74 1508.9,74 1508.9,58.2 1494.2,58.2 1494.2,74 1478.5,74 1478.5,88.8 1494.2,88.8 
		1494.2,104.6 1508.9,104.6 1508.9,88.8 1524.5,88.8 	"/>
</g>
<g>
	<path class="st26" d="M382.7,241.6v84.7c0,6.1,5,11.1,11.1,11.1h115.8c6.1,0,11.1-5,11.1-11.1v-84.7c0-6.1-5-11.1-11.1-11.1H393.8
		C387.7,230.5,382.7,235.5,382.7,241.6L382.7,241.6z"/>
	<path class="st27" d="M373.7,232.4v84.7c0,6.9,5.7,12.6,12.6,12.6h112.5c6.9,0,12.6-5.6,12.6-12.6v-84.7c0-6.9-5.6-12.6-12.6-12.6
		H386.3C379.3,219.8,373.7,225.4,373.7,232.4L373.7,232.4z"/>
	<path class="st28" d="M375.2,232.4v84.7c0,6.1,5,11.1,11.1,11.1h112.5c6.1,0,11.1-5,11.1-11.1v-84.7c0-6.1-5-11.1-11.1-11.1H386.3
		C380.2,221.3,375.2,226.3,375.2,232.4L375.2,232.4z"/>
	<path class="st29" d="M442.5,253c-9-19.5-35.3-11.5-35.3,8.2c0,5.9,1,11.1,3.1,16h18.2c0.8,0,1.4,0.4,1.5,1l1.8,5.3l7.7-25
		c0.2-0.6,1.1-1,1.9-0.9c0.6,0.1,1.1,0.4,1.2,0.9l5.8,20.1l4.9-11.1c0.3-0.6,1.2-1,2-0.8c0.6,0.2,1,0.5,1.1,1l2.5,9.5h15.3
		c2.4-4.9,3.6-10.2,3.6-16C477.8,241.5,451.5,233.5,442.5,253L442.5,253z M411.5,279.7c5.1,9.8,15.1,18.3,31,28
		c14.4-9.5,24.8-18,30.4-28h-15.4l0,0c-0.8,0-1.4-0.4-1.6-1l-1.6-6.2l-4.8,11c-0.1,0.4-0.6,0.8-1.2,0.9c-0.9,0.2-1.7-0.3-1.9-0.9
		l-5.4-19.2l-7.6,24.6c-0.1,0.4-0.5,0.8-1.1,0.9c-0.9,0.2-1.7-0.3-1.9-0.9l-3-9.2H411.5z"/>
</g>
<g>
	<path class="st30" d="M560.8,384.9v110.5c0,8,6.5,14.5,14.5,14.5h151c8,0,14.5-6.6,14.5-14.5V384.9c0-8-6.5-14.5-14.5-14.5h-151
		C567.3,370.4,560.8,376.9,560.8,384.9L560.8,384.9z"/>
	<path class="st31" d="M549,372.9v110.5c0,9.1,7.4,16.5,16.5,16.5h146.8c9,0,16.4-7.4,16.4-16.5V372.9c0-9-7.4-16.5-16.4-16.5H565.5
		C556.4,356.4,549,363.8,549,372.9L549,372.9z"/>
	<path class="st28" d="M550.5,372.6v111.1c0,8,6.6,14.6,14.6,14.6h147.6c8,0,14.6-6.6,14.6-14.6V372.6c0-8-6.6-14.6-14.6-14.6H565
		C557,358,550.5,364.5,550.5,372.6L550.5,372.6z"/>
	<path class="st32" d="M563.6,374.5h150.7v11.3H563.4v-11.3H563.6z M714,374.9H563.8v10.7H714V374.9z"/>
	<path class="st32" d="M563.6,385.6h150.7v11.3H563.4v-11.3H563.6z M714,385.9H563.8v10.7H714V385.9z"/>
	<path class="st32" d="M563.6,396.6h150.7v11.3H563.4v-11.3H563.6z M714,396.9H563.8v10.7H714V396.9z"/>
	<path class="st32" d="M563.6,407.6h150.7V419H563.4v-11.3H563.6z M714,407.9H563.8v10.7H714V407.9z"/>
	<path class="st32" d="M563.6,418.6h150.7V430H563.4v-11.3H563.6z M714,419H563.8v10.7H714V419z"/>
	<path class="st32" d="M563.6,429.7h150.7V441H563.4v-11.3H563.6z M714,430H563.8v10.6H714V430z"/>
	<path class="st32" d="M563.6,440.6h150.7V452H563.4v-11.4H563.6z M714,441H563.8v10.6H714V441z"/>
	<path class="st32" d="M563.6,451.6h150.7V463H563.4v-11.4H563.6z M714,452H563.8v10.6H714V452z"/>
	<path class="st32" d="M563.6,462.7h150.7v11.4H563.4v-11.4H563.6z M714,463H563.8v10.6H714V463z"/>
	<path class="st32" d="M563.4,473.8v-99.3h10.4v99.5h-10.4V473.8z M563.8,374.9v98.8h9.8v-98.8H563.8z"/>
	<path class="st32" d="M573.5,473.8v-99.3h10.4c-0.1,33.2-0.1,66.3,0,99.5h-10.4V473.8z M573.8,374.9v98.8h9.8v-98.8H573.8z"/>
	<path class="st32" d="M583.6,473.8v-99.3H594v99.5h-10.4V473.8z M583.9,374.9v98.8h9.8v-98.8H583.9z"/>
	<path class="st32" d="M593.7,473.8v-99.3h10.4v99.5h-10.4V473.8z M594,374.9v98.8h9.8v-98.8H594z"/>
	<path class="st32" d="M603.8,473.8v-99.3h10.4c-0.1,33.2-0.1,66.3,0,99.5h-10.4V473.8z M604.1,374.9v98.8h9.8v-98.8H604.1z"/>
	<path class="st32" d="M613.9,473.8v-99.3h10.4v99.5h-10.4V473.8z M614.2,374.9v98.8h9.8v-98.8H614.2z"/>
	<path class="st32" d="M624,473.8v-99.3h10.4v99.5H624V473.8z M624.3,374.9v98.8h9.8v-98.8H624.3z"/>
	<path class="st32" d="M634.1,473.8v-99.3h10.4v99.5h-10.4V473.8z M634.3,374.9v98.8h9.8v-98.8H634.3z"/>
	<path class="st32" d="M644.1,473.8v-99.3h10.4v99.5h-10.4V473.8z M644.5,374.9v98.8h9.8v-98.8H644.5z"/>
	<path class="st32" d="M654.2,473.8v-99.3h10.4v99.5h-10.4V473.8z M654.6,374.9v98.8h9.8v-98.8H654.6z"/>
	<path class="st32" d="M664.3,473.8v-99.3h10.4v99.5h-10.4V473.8z M664.7,374.9v98.8h9.7v-98.8H664.7z"/>
	<path class="st32" d="M674.4,473.8v-99.3h10.4v99.5h-10.4V473.8z M674.7,374.9v98.8h9.8v-98.8H674.7z"/>
	<path class="st32" d="M684.5,473.8v-99.3h10.4v99.5h-10.4V473.8z M684.8,374.9v98.8h9.8v-98.8H684.8z"/>
	<path class="st32" d="M694.6,473.8v-99.3H705v99.5h-10.4V473.8z M694.9,374.9v98.8h9.7v-98.8H694.9z"/>
	<path class="st2" d="M571.8,435.7c-1.4,0-2.5-1.3-2.5-3c0-1.6,1.1-3,2.5-3h46.4c1.2,0,2.2,1,2.4,2.4l2.7,13.1l12.1-61.9
		c0.3-1.6,1.6-2.6,3-2.3c1,0.3,1.7,1.2,1.8,2.3l9,49.9l7.6-27.6c0.4-1.6,1.8-2.4,3.1-1.9c0.9,0.4,1.5,1.3,1.7,2.4l3.9,23.7h40.3
		c1.4,0,2.5,1.3,2.5,3c0,1.7-1.1,3-2.5,3h-42.3l0,0c-1.1,0-2.2-1-2.4-2.4l-2.5-15.2l-7.5,27c-0.3,1.1-1,1.9-1.9,2.2
		c-1.3,0.3-2.6-0.7-3-2.3l-8.5-47.6l-11.9,61.1c-0.2,1-0.9,1.9-1.8,2.2c-1.3,0.4-2.7-0.6-3-2.2l-4.7-22.8H571.8z"/>
</g>
<g>
	<path class="st26" d="M637.4,114.3v97c0,7,5.8,12.7,12.7,12.7h132.5c7,0,12.7-5.7,12.7-12.7v-97c0-7-5.7-12.7-12.7-12.7H650.1
		C643.1,101.5,637.4,107.3,637.4,114.3L637.4,114.3z"/>
	<path class="st27" d="M627.1,103.7v97c0,7.9,6.5,14.4,14.5,14.4h128.8c7.9,0,14.4-6.5,14.4-14.4v-97c0-8-6.5-14.4-14.4-14.4H641.5
		C633.6,89.3,627.1,95.8,627.1,103.7L627.1,103.7z"/>
	<path class="st28" d="M628.2,103.4v97.7c0,7,5.8,12.8,12.8,12.8h129.8c7,0,12.8-5.8,12.8-12.8v-97.7c0-7-5.8-12.8-12.8-12.8H641
		C633.9,90.6,628.2,96.3,628.2,103.4L628.2,103.4z"/>
	<path class="st33" d="M705.9,117.9c18.9,0,34.3,15.4,34.3,34.4c0,18.9-15.4,34.3-34.3,34.3c-19,0-34.4-15.4-34.4-34.3
		C671.6,133.2,686.9,117.9,705.9,117.9L705.9,117.9z"/>
	<path class="st2" d="M705.9,117.4c9.6,0,18.3,3.9,24.6,10.2c6.3,6.3,10.2,15,10.2,24.6c0,9.6-3.9,18.3-10.2,24.6
		s-15,10.2-24.6,10.2c-9.6,0-18.3-3.9-24.6-10.2c-6.3-6.3-10.2-15-10.2-24.6c0-9.6,3.9-18.3,10.2-24.6
		C687.6,121.3,696.3,117.4,705.9,117.4L705.9,117.4z"/>
	<path class="st28" d="M701,133.3h9.9c0.5,0,0.9,0.4,0.9,0.9v11.2c0,0.5,0.4,0.9,0.9,0.9h11.2c0.5,0,0.9,0.4,0.9,0.9v9.9
		c0,0.5-0.4,0.9-0.9,0.9h-11.2c-0.5,0-0.9,0.4-0.9,0.9v11.2c0,0.5-0.4,0.9-0.9,0.9H701c-0.5,0-0.9-0.4-0.9-0.9V159
		c0-0.5-0.4-0.9-0.9-0.9h-11.2c-0.5,0-0.9-0.4-0.9-0.9v-9.9c0-0.5,0.4-0.9,0.9-0.9h11.2c0.5,0,0.9-0.4,0.9-0.9v-11.2
		C700.1,133.7,700.4,133.3,701,133.3L701,133.3z"/>
	<path class="st30" d="M586.2,197.3h81c2,0,3.6,1.6,3.6,3.6v53.1c0,2-1.6,3.6-3.6,3.6c-36.9,0-78.1,0-81,0c-2,0-3.6-1.6-3.6-3.6
		v-53.1C582.6,198.9,584.2,197.3,586.2,197.3L586.2,197.3z"/>
	<path class="st31" d="M577.3,252.3c-2.2,0-4-1.8-4-4v-54.7c0-2.2,1.8-4,4-4h83.5c2.2,0,4,1.8,4,4v54.7c0,2.2-1.8,4-4,4H577.3z"/>
	<path class="st28" d="M578,190.3h82.2c2,0,3.7,1.7,3.7,3.7v53.9c0,2-1.7,3.7-3.7,3.7H578c-2,0-3.7-1.7-3.7-3.7V194
		C574.3,192,575.9,190.3,578,190.3L578,190.3z"/>
	<path class="st34" d="M637.7,215.6c-3,0-5.4,2.4-5.4,5.4c0,3,2.4,5.4,5.4,5.4c3,0,5.4-2.4,5.4-5.4
		C643.1,218,640.7,215.6,637.7,215.6L637.7,215.6z M619,215.6c-3,0-5.4,2.4-5.4,5.4c0,3,2.4,5.4,5.4,5.4c3,0,5.4-2.4,5.4-5.4
		C624.4,218,622,215.6,619,215.6L619,215.6z M600.4,215.6c-3,0-5.4,2.4-5.4,5.4c0,3,2.4,5.4,5.4,5.4c3,0,5.4-2.4,5.4-5.4
		C605.8,218,603.3,215.6,600.4,215.6L600.4,215.6z"/>
</g>
<g>
	<path class="st1" d="M289.6,134.4c5.7,0,10.8,2.3,14.5,6c3.7,3.7,6,8.8,6,14.5c0,5.7-2.3,10.8-6,14.5c-3.7,3.7-8.8,6-14.5,6
		c-5.7,0-10.8-2.3-14.5-6c-3.7-3.7-6-8.8-6-14.5c0-5.7,2.3-10.8,6-14.5C278.8,136.7,283.9,134.4,289.6,134.4L289.6,134.4z"/>
	<path class="st28" d="M286.7,143.8h5.8c0.3,0,0.5,0.2,0.5,0.5v6.6c0,0.3,0.2,0.5,0.5,0.5h6.6c0.3,0,0.5,0.2,0.5,0.5v5.8
		c0,0.3-0.3,0.5-0.5,0.5h-6.6c-0.3,0-0.5,0.2-0.5,0.5v6.6c0,0.3-0.3,0.5-0.5,0.5h-5.8c-0.3,0-0.5-0.3-0.5-0.5v-6.6
		c0-0.3-0.3-0.5-0.5-0.5H279c-0.3,0-0.5-0.3-0.5-0.5V152c0-0.3,0.2-0.5,0.5-0.5h6.6c0.3,0,0.5-0.3,0.5-0.5v-6.6
		C286.2,144,286.4,143.8,286.7,143.8L286.7,143.8z"/>
	<path class="st1" d="M751.5,20.1c5.7,0,10.8,2.3,14.5,6c3.7,3.7,6,8.8,6,14.5c0,5.7-2.3,10.8-6,14.5s-8.8,6-14.5,6
		c-5.7,0-10.8-2.3-14.5-6c-3.7-3.7-6-8.8-6-14.5c0-5.7,2.3-10.8,6-14.5C740.7,22.4,745.8,20.1,751.5,20.1L751.5,20.1z"/>
	<path class="st28" d="M748.6,29.4h5.8c0.3,0,0.5,0.2,0.5,0.5v6.6c0,0.3,0.2,0.5,0.5,0.5h6.6c0.3,0,0.5,0.2,0.5,0.5v5.8
		c0,0.3-0.3,0.5-0.5,0.5h-6.6c-0.3,0-0.5,0.2-0.5,0.5v6.6c0,0.3-0.3,0.5-0.5,0.5h-5.8c-0.3,0-0.5-0.3-0.5-0.5v-6.6
		c0-0.3-0.3-0.5-0.5-0.5h-6.6c-0.3,0-0.5-0.3-0.5-0.5v-5.8c0-0.3,0.2-0.5,0.5-0.5h6.6c0.3,0,0.5-0.3,0.5-0.5V30
		C748.1,29.7,748.3,29.4,748.6,29.4L748.6,29.4z"/>
	<path class="st1" d="M48.7,258.8c5.7,0,10.8,2.3,14.5,6c3.7,3.7,6,8.8,6,14.5c0,5.7-2.3,10.8-6,14.5c-3.7,3.7-8.8,6-14.5,6
		c-5.7,0-10.8-2.3-14.5-6c-3.7-3.7-6-8.8-6-14.5c0-5.7,2.3-10.8,6-14.5C37.9,261.1,43.1,258.8,48.7,258.8L48.7,258.8z"/>
	<path class="st28" d="M45.8,268.2h5.8c0.3,0,0.5,0.2,0.5,0.5v6.6c0,0.3,0.2,0.5,0.5,0.5h6.6c0.3,0,0.5,0.2,0.5,0.5v5.8
		c0,0.3-0.3,0.5-0.5,0.5h-6.6c-0.3,0-0.5,0.2-0.5,0.5v6.6c0,0.3-0.3,0.5-0.5,0.5h-5.8c-0.3,0-0.5-0.3-0.5-0.5v-6.6
		c0-0.3-0.3-0.5-0.5-0.5h-6.6c-0.3,0-0.5-0.3-0.5-0.5v-5.8c0-0.3,0.2-0.5,0.5-0.5h6.6c0.3,0,0.5-0.3,0.5-0.5v-6.6
		C45.3,268.4,45.5,268.2,45.8,268.2L45.8,268.2z"/>
</g>
<circle class="st0" cx="1123.4" cy="521.4" r="17"/>
<path class="st35" d="M1116.4,521.4c0-7.6,5.1-14.1,12-16.2c-1.6-0.5-3.3-0.8-5-0.8c-9.4,0-17,7.6-17,17c0,9.4,7.6,17,17,17
	c1.7,0,3.4-0.3,5-0.8C1121.5,535.5,1116.4,529,1116.4,521.4z"/>
<path class="st36" d="M1031.3,266.2c0,0-3.4,3.4-3.5,3.5c1,1.6,1.5,3.5,1.5,5.5v5.8c0,0.6-0.5,1.2-1.2,1.2h-42.9
	c-0.6,0-1.2-0.5-1.2-1.2v-5.8c0-2,0.5-3.9,1.5-5.5c0,0,0.2,0.2-3.5-3.5c-1.4-1.4-1.5-3.6-0.3-5.1c1.5-1.9,1-4.1-0.3-5.3
	c-1.5-1.4-1.6-3.6-0.4-5.2l1.7-2.1c0.8-1,1-2.3,0.7-3.5l-1.1-3.7c-0.6-1.9,0.4-3.9,2.2-4.7l1.4-0.6c1.4-0.6,2.4-2,2.4-3.6v-3.8
	c0-8.1,6.6-14.7,14.7-14.7h7.1c8.1,0,14.7,6.6,14.7,14.7v3.8c0,1.6,0.9,3,2.4,3.6l1.4,0.6c1.8,0.7,2.8,2.8,2.2,4.7l-1.1,3.7
	c-0.4,1.2-0.1,2.5,0.7,3.5l1.7,2.1c1.2,1.6,1.1,3.8-0.4,5.2c-1.5,1.4-1.6,3.6-0.4,5.2C1032.9,262.8,1032.6,264.9,1031.3,266.2
	L1031.3,266.2z"/>
<path class="st36" d="M982,266.2c0,0,3.4,3.4,3.5,3.5c-1,1.6-1.5,3.5-1.5,5.5v5.8c0,0.6,0.5,1.2,1.2,1.2h42.9c0.6,0,1.2-0.5,1.2-1.2
	v-5.8c0-2-0.5-3.9-1.5-5.5c0,0-0.2,0.2,3.5-3.5c1.4-1.4,1.5-3.6,0.3-5.1c-1.5-1.9-1-4.1,0.3-5.3c1.5-1.4,1.6-3.6,0.4-5.2l-1.7-2.1
	c-0.8-1-1-2.3-0.7-3.5l1.1-3.7c0.6-1.9-0.4-3.9-2.2-4.7l-1.4-0.6c-1.4-0.6-2.4-2-2.4-3.6v-3.8c0-8.1-6.6-14.7-14.7-14.7h-7.1
	c-8.1,0-14.7,6.6-14.7,14.7v3.8c0,1.6-0.9,3-2.4,3.6l-1.4,0.6c-1.8,0.7-2.8,2.8-2.2,4.7l1.1,3.7c0.4,1.2,0.1,2.5-0.7,3.5l-1.7,2.1
	c-1.2,1.6-1.1,3.8,0.4,5.2c1.5,1.4,1.6,3.6,0.4,5.2C980.4,262.8,980.7,264.9,982,266.2L982,266.2z"/>
<path class="st2" d="M993.1,240.2c-0.6,0.1-1,0.6-1,1.2v2.3c0,6.1,3.7,11.3,9,13.5l0,0.1v1c0,3.3-2.7,6-6,6.1
	c-4.1,0-7.6,2.2-9.5,5.4c0,0-3.5-3.4-3.5-3.5c-1.4-1.4-1.5-3.6-0.3-5.1c1.5-1.9,1-4.1-0.3-5.3c-1.5-1.4-1.6-3.6-0.4-5.2l1.7-2.1
	c0.8-1,1-2.3,0.7-3.5l-1.1-3.7c-0.6-1.9,0.4-3.9,2.2-4.7l1.4-0.6c1.4-0.6,2.4-2,2.4-3.6v-3.8c0-8.1,6.6-14.7,14.7-14.7h7.1
	c8.1,0,14.7,6.6,14.7,14.7v3.8c0,1.6,0.9,3,2.4,3.6l1.4,0.6c1.8,0.7,2.8,2.8,2.2,4.7l-1.1,3.7c-0.4,1.2-0.1,2.5,0.7,3.5l1.7,2.1
	c1.2,1.6,1.1,3.8-0.4,5.2c-1.4,1.3-1.7,3.5-0.3,5.3c1.2,1.5,1.1,3.7-0.3,5.1c0,0-3.4,3.4-3.5,3.5c-1.9-3.2-5.4-5.4-9.5-5.4
	c-3.3,0-6-2.7-6-6.1v-1l0-0.1c5.3-2.2,9-7.4,9-13.5v-7.3c0-0.5-0.3-0.9-0.8-1.1c-2.6-0.9-4.7-2.7-6.1-5.1c-0.4-0.7-1.4-0.8-1.9-0.2
	C1007.5,235.8,1000.7,239.4,993.1,240.2L993.1,240.2z"/>
<path class="st37" d="M1020.4,235.3c0.5,0.2,0.8,0.6,0.8,1.1v7.3c0,6.1-3.7,11.3-9,13.5c-9.5,4-20.1-3.1-20.1-13.5v-2.3
	c0-0.6,0.4-1.1,1-1.2c7.5-0.9,14.4-4.5,19.3-10.2c0.5-0.6,1.5-0.5,1.9,0.2C1015.7,232.6,1017.9,234.4,1020.4,235.3L1020.4,235.3z"/>
<path class="st38" d="M1029.3,275.2v5.8c0,0.6-0.5,1.2-1.2,1.2h-42.9c-0.6,0-1.2-0.5-1.2-1.2v-5.8c0-6.1,4.9-11,11-11
	c0.8,0,1.7-0.2,2.5-0.5l0,0.1l8.4,6.5c0.4,0.3,1,0.3,1.4,0l8.4-6.5l0-0.1c0.7,0.3,1.6,0.5,2.5,0.5
	C1024.6,264.2,1029.3,269.3,1029.3,275.2z"/>
<path class="st39" d="M1015.4,214.9c1.9,0.7,1.3,3.5-0.7,3.5c-0.1,0-7.1,0-7.1,0c-8.1,0-14.7,6.6-14.7,14.7v3.8c0,1.6-0.9,3-2.4,3.6
	L989,241c-1.8,0.7-2.8,2.8-2.2,4.7l1.1,3.7c0.4,1.2,0.1,2.5-0.7,3.5l-1.7,2.1c-1.2,1.6-1.1,3.8,0.4,5.2c1.5,1.4,1.6,3.6,0.4,5.2
	c-1,1.3-1.2,2.8-0.6,4c0.1,0.1-0.1,0.3-0.2,0.2c-0.6-0.6-3.3-3.3-3.4-3.3c-1.3-1.3-1.6-3.4-0.2-5.2c1.2-1.6,1.1-3.8-0.4-5.2
	c-1.5-1.4-1.6-3.6-0.4-5.2l1.7-2.1c0.8-1,1-2.3,0.7-3.5l-1.1-3.7c-0.6-1.9,0.4-3.9,2.2-4.7l1.4-0.6c1.4-0.6,2.4-2,2.4-3.6v-3.8
	c0-8.1,6.6-14.7,14.7-14.7h7.1C1012,213.9,1013.7,214.3,1015.4,214.9L1015.4,214.9z"/>
<path class="st40" d="M1003.3,253.1c2.4,1.5,0.5,5.2-2.1,4.1c-5.4-2.2-9.1-7.4-9.1-13.5v-2.3c0-0.6,0.4-1.1,1-1.2
	c0.5-0.1,1.1-0.1,1.8-0.3c0.8-0.1,1.6,0.5,1.7,1.3C997,246.7,999.7,250.8,1003.3,253.1L1003.3,253.1z"/>
<path class="st41" d="M999.4,265.2c0.8,0.6,0.4,1.8-0.6,1.8c-6.3,0-11,5-11,11v4.2h-2.6c-0.6,0-1.2-0.5-1.2-1.2v-5.8
	c0-5.9,4.8-11,11-11c0.9,0,1.7-0.2,2.5-0.5l0,0.1L999.4,265.2z"/>
<path class="st42" d="M1013.9,265.2c-0.8,0.6-0.4,1.8,0.6,1.8c6.3,0,11,5,11,11v4.2h2.6c0.6,0,1.2-0.5,1.2-1.2v-5.8
	c0-5.9-4.8-11-11-11c-0.9,0-1.7-0.2-2.5-0.5l0,0.1L1013.9,265.2z"/>
<path class="st43" d="M1005.9,270.3c0.4,0.3,1,0.3,1.4,0l8.4-6.5l0-0.1c0.7,0.3,1.6,0.5,2.5,0.5l-5.1,17.9h-12.9l-5.1-17.9
	c0.9,0,1.7-0.2,2.5-0.5l0,0.1L1005.9,270.3z"/>
<path class="st44" d="M1007.8,269.9v9.9c0,0.6-0.5,1.2-1.2,1.2s-1.2-0.5-1.2-1.2v-9.9l0.5,0.4c0.4,0.3,1,0.3,1.4,0L1007.8,269.9z"/>
<path class="st45" d="M997.5,267.1c-0.4,0-0.9,0.1-1.5,0.3l-0.9-3.2c0.9,0,1.7-0.2,2.5-0.5l0,0.1l0.7,0.6
	C999.4,265.2,998.9,267,997.5,267.1z"/>
<path class="st44" d="M1015.8,267.1c0.4,0,0.9,0.1,1.5,0.3l0.9-3.2c-0.9,0-1.7-0.2-2.5-0.5l0,0.1l-0.7,0.6
	C1013.9,265.2,1014.4,267,1015.8,267.1z"/>
<path class="st46" d="M1012.4,259.6c-3.6,1.5-7.6,1.6-11.5,0c0.2-0.8,0.2-1.4,0.2-2.4l0-0.1c3.5,1.5,7.6,1.5,11.1,0l0,0.1
	C1012.2,258.2,1012.2,258.8,1012.4,259.6L1012.4,259.6z"/>
</svg>
